<svg width="33" height="30" viewBox="0 0 33 30" fill="none" xmlns="http://www.w3.org/2000/svg">
<path d="M11.2917 3.71447C11.601 2.90256 12.0263 2.1551 12.6578 1.54939C15.1837 -0.912092 19.3592 -0.293499 21.0732 2.79947C22.362 5.14496 23.728 7.43891 25.0554 9.75864C27.2721 13.612 29.5145 17.4653 31.7053 21.3315C33.5482 24.5662 31.5507 28.6515 27.8907 29.2056C25.6483 29.5407 23.5476 28.5097 22.3878 26.4993C20.4418 23.1099 18.4829 19.7206 16.5369 16.3441C16.4982 16.2667 16.4467 16.2023 16.3951 16.1379C16.1889 15.9703 16.0987 15.7255 15.9699 15.5064C15.1064 13.9857 14.2172 12.4779 13.3537 10.97C12.7996 9.99061 12.2196 9.02406 11.6655 8.04462C11.1629 7.16828 10.9309 6.21461 10.9567 5.2094C10.9953 4.69391 11.0598 4.17841 11.2917 3.71447Z" fill="#3C8BD9"/>
<path d="M11.2918 3.71448C11.1758 4.17842 11.0727 4.64237 11.0469 5.13209C11.0082 6.21462 11.2789 7.21984 11.8201 8.16061C13.2377 10.5963 14.6553 13.0449 16.0601 15.4935C16.1889 15.7126 16.292 15.9317 16.4209 16.1379C15.6477 17.4782 14.8744 18.8056 14.0883 20.1459C13.0058 22.0145 11.9232 23.8961 10.8278 25.7647C10.7763 25.7647 10.7634 25.739 10.7505 25.7003C10.7376 25.5972 10.7763 25.507 10.802 25.4039C11.3304 23.4708 10.8922 21.7568 9.56485 20.2876C8.75294 19.3984 7.72195 18.8958 6.53632 18.7282C4.98984 18.5092 3.62378 18.9087 2.39948 19.8752C2.18039 20.0428 2.03863 20.2876 1.78089 20.4165C1.72934 20.4165 1.70356 20.3907 1.69067 20.352C2.30927 19.2824 2.91497 18.2127 3.53357 17.1431C6.08526 12.7098 8.63696 8.2766 11.2015 3.85624C11.2273 3.80469 11.266 3.76603 11.2918 3.71448Z" fill="#FABC04"/>
<path d="M1.74222 20.3907C1.98708 20.1716 2.21905 19.9396 2.4768 19.7334C5.60843 17.2591 10.3123 19.0504 10.9953 22.9682C11.1629 23.9089 11.0727 24.8111 10.7891 25.7132C10.7763 25.7905 10.7634 25.8549 10.7376 25.9323C10.6216 26.1384 10.5185 26.3575 10.3896 26.5637C9.24266 28.4582 7.55442 29.3989 5.33779 29.2572C2.79898 29.0768 0.801444 27.1694 0.453486 24.6435C0.28595 23.4192 0.53081 22.2722 1.16229 21.2155C1.29116 20.9835 1.44581 20.7773 1.58757 20.5453C1.65201 20.4938 1.62623 20.3907 1.74222 20.3907Z" fill="#34A852"/>
<path d="M1.74221 20.3907C1.69066 20.4422 1.69066 20.5325 1.60045 20.5453C1.58757 20.4551 1.63911 20.4036 1.69066 20.3391L1.74221 20.3907Z" fill="#FABC04"/>
<path d="M10.7376 25.9322C10.6861 25.842 10.7376 25.7776 10.7891 25.7132C10.802 25.7261 10.8278 25.7518 10.8407 25.7647L10.7376 25.9322Z" fill="#E1C025"/>
</svg>
