<svg width="32" height="32" viewBox="0 0 32 32" fill="none" xmlns="http://www.w3.org/2000/svg">
<path d="M4.70344 28.5306L2.18994 0.337891H29.8099L27.2939 28.5264L15.9832 31.6621L4.70344 28.5306V28.5306Z" fill="#1572B6"/>
<path d="M16 29.2651L25.1397 26.7311L27.29 2.64258H16V29.2651Z" fill="#33A9DC"/>
<path d="M16 12.8569H20.5755L20.8915 9.31615H16V5.8584H24.6705L24.5875 6.78615L23.7375 16.3146H16V12.8569Z" fill="white"/>
<path d="M16.0207 21.8369L16.0055 21.8414L12.1547 20.8017L11.9085 18.0439H8.43799L8.92224 23.4732L16.005 25.4389L16.0207 25.4344V21.8369V21.8369Z" fill="#EBEBEB"/>
<path d="M20.2818 16.1689L19.8653 20.7994L16.0088 21.8404V25.4379L23.0973 23.4734L23.1493 22.8892L23.7508 16.1689H20.2818Z" fill="white"/>
<path d="M16.0121 5.8584V9.31615H7.66009L7.59084 8.53915L7.43334 6.78615L7.35059 5.8584H16.0121V5.8584ZM16.0003 12.8574V16.3151H12.1981L12.1288 15.5381L11.9711 13.7851L11.8886 12.8574H16.0003V12.8574Z" fill="#EBEBEB"/>
</svg>
