<svg width="22" height="32" viewBox="0 0 22 32" fill="none" xmlns="http://www.w3.org/2000/svg">
<g clip-path="url(#clip0_1_137)">
<path d="M10.6666 16C10.6666 14.5855 11.2285 13.2289 12.2287 12.2288C13.2289 11.2286 14.5855 10.6667 16 10.6667C17.4144 10.6667 18.771 11.2286 19.7712 12.2288C20.7714 13.2289 21.3333 14.5855 21.3333 16C21.3333 17.4145 20.7714 18.771 19.7712 19.7712C18.771 20.7714 17.4144 21.3333 16 21.3333C14.5855 21.3333 13.2289 20.7714 12.2287 19.7712C11.2285 18.771 10.6666 17.4145 10.6666 16V16Z" fill="#1ABCFE"/>
<path d="M0 26.6667C0 25.2522 0.561903 23.8956 1.5621 22.8954C2.56229 21.8952 3.91885 21.3333 5.33333 21.3333H10.6667V26.6667C10.6667 28.0812 10.1048 29.4377 9.10457 30.4379C8.10438 31.4381 6.74782 32 5.33333 32C3.91885 32 2.56229 31.4381 1.5621 30.4379C0.561903 29.4377 0 28.0812 0 26.6667H0Z" fill="#0ACF83"/>
<path d="M10.6666 0V10.6667H16C17.4144 10.6667 18.771 10.1048 19.7712 9.10457C20.7714 8.10438 21.3333 6.74782 21.3333 5.33333C21.3333 3.91885 20.7714 2.56229 19.7712 1.5621C18.771 0.561903 17.4144 0 16 0L10.6666 0Z" fill="#FF7262"/>
<path d="M0 5.33333C0 6.74782 0.561903 8.10438 1.5621 9.10457C2.56229 10.1048 3.91885 10.6667 5.33333 10.6667H10.6667V0H5.33333C3.91885 0 2.56229 0.561903 1.5621 1.5621C0.561903 2.56229 0 3.91885 0 5.33333H0Z" fill="#F24E1E"/>
<path d="M0 16C0 17.4145 0.561903 18.771 1.5621 19.7712C2.56229 20.7714 3.91885 21.3333 5.33333 21.3333H10.6667V10.6667H5.33333C3.91885 10.6667 2.56229 11.2286 1.5621 12.2288C0.561903 13.2289 0 14.5855 0 16H0Z" fill="#A259FF"/>
</g>
<defs>
<clipPath id="clip0_1_137">
<rect width="21.3333" height="32" fill="white"/>
</clipPath>
</defs>
</svg>
