<svg xmlns="http://www.w3.org/2000/svg" width="29" height="32" viewBox="0 0 29 32" fill="none">
<path d="M28.9067 27.9957C28.9127 29.1359 28.4291 30.2238 27.5786 30.9832C26.7282 31.7426 25.5927 32.1005 24.4605 31.966C22.4231 31.6645 20.9301 29.8915 20.9797 27.8326V4.16043C20.9305 2.0992 22.4272 0.325363 24.4673 0.0269866C25.5984 -0.105405 26.732 0.253447 27.5809 1.01262C28.4298 1.7718 28.9125 2.85845 28.9067 3.99727V27.9957Z" fill="#F9AB00"/>
<path d="M3.96348 24.0729C6.15246 24.0729 7.92697 25.8474 7.92697 28.0364C7.92697 30.2253 6.15246 31.9998 3.96348 31.9998C1.77451 31.9998 0 30.2253 0 28.0364C0 25.8474 1.77451 24.0729 3.96348 24.0729ZM14.3923 12.06C12.1929 12.1806 10.4865 14.0254 10.5376 16.2275V26.8738C10.5376 29.7632 11.8089 31.5171 13.6716 31.8911C14.8411 32.1281 16.0551 31.8266 16.9777 31.07C17.9004 30.3134 18.4339 29.182 18.4306 27.9888V16.0439C18.4325 14.9773 18.0059 13.9545 17.2466 13.2054C16.4872 12.4563 15.4588 12.0436 14.3923 12.06Z" fill="#E37400"/>
</svg>