<svg width="auto" height="auto" viewBox="0 0 559 616" fill="#3C80F6" xmlns="http://www.w3.org/2000/svg">
    <path id="mask" fill-rule="evenodd" clip-rule="evenodd" d="M332.807 1.13245C461.718 10.677 502.693 161.468 537.533 285.948C566.352 388.917 577.579 507.517 492.755 572.618C402.381 641.98 278.587 620.781 184 557.283C74.6543 483.877 -26.7984 373.91 7.24251 246.686C46.0856 101.514 182.939 -9.96386 332.807 1.13245Z" fill="#3C80F6"></path>
    <mask id="mask1_202_37" style="mask-type:alpha" maskUnits="userSpaceOnUse" x="90" y="93" width="696" height="571">
    <path id="mask" fill-rule="evenodd" clip-rule="evenodd" d="M332.807 1.13245C461.718 10.677 502.693 161.468 537.533 285.948C566.352 388.917 577.579 507.517 492.755 572.618C402.381 641.98 278.587 620.781 184 557.283C74.6543 483.877 -26.7984 373.91 7.24251 246.686C46.0856 101.514 182.939 -9.96386 332.807 1.13245Z" fill="#3C80F6"></path>
    </mask>
    <g mask="url(#mask1_202_37)">
        <image xlink:href="https://guillaumebielli.fr/img/gb-contour.png" xmlns:xlink="http://www.w3.org/1999/xlink"></image>
    </g>   
</svg>