<svg xmlns="http://www.w3.org/2000/svg" width="22" height="19" viewBox="0 0 22 19" fill="none">
<path d="M18.5469 13.6929H11.2396C9.47026 13.6929 8.48438 14.9135 8.48438 16.2085C8.48438 17.4064 9.32292 18.7241 11.2396 18.7241H18.5469V13.6929Z" fill="#669DF6"/>
<path d="M18.5469 18.7241C19.9362 18.7241 21.0625 17.5978 21.0625 16.2085C21.0625 14.8192 19.9362 13.6929 18.5469 13.6929C17.1575 13.6929 16.0312 14.8192 16.0312 16.2085C16.0312 17.5978 17.1575 18.7241 18.5469 18.7241Z" fill="#1A73E8"/>
<path d="M11 6.98438H3.69271C1.92339 6.98438 0.9375 8.20505 0.9375 9.5C0.9375 10.6979 1.77604 12.0156 3.69271 12.0156H11V6.98438Z" fill="#669DF6"/>
<path d="M11 12.0156C12.3893 12.0156 13.5156 10.8893 13.5156 9.5C13.5156 8.11066 12.3893 6.98438 11 6.98438C9.61066 6.98438 8.48438 8.11066 8.48438 9.5C8.48438 10.8893 9.61066 12.0156 11 12.0156Z" fill="#1A73E8"/>
<path d="M18.5469 0.276123H11.2396C9.47026 0.276123 8.48438 1.4968 8.48438 2.79175C8.48438 3.98966 9.32292 5.30737 11.2396 5.30737H18.5469V0.276123Z" fill="#669DF6"/>
<path d="M18.5469 5.30737C19.9362 5.30737 21.0625 4.18109 21.0625 2.79175C21.0625 1.40241 19.9362 0.276123 18.5469 0.276123C17.1575 0.276123 16.0312 1.40241 16.0312 2.79175C16.0312 4.18109 17.1575 5.30737 18.5469 5.30737Z" fill="#1A73E8"/>
</svg>