<svg width="34" height="39" viewBox="0 0 34 39" fill="none" xmlns="http://www.w3.org/2000/svg">
<path d="M11.852 36.693L11.8452 37.4498H12.602H23.5372H24.2909L24.2872 36.6961L23.5372 36.6998L24.2872 36.6961V36.6959L24.2872 36.6951L24.2871 36.6922L24.2871 36.6804L24.2869 36.6342L24.286 36.4564L24.283 35.801C24.2805 35.2469 24.2771 34.4796 24.2738 33.627C24.2671 31.9214 24.2604 29.8761 24.2604 28.513C24.2604 27.0707 23.9358 25.9036 23.4354 25.0316C25.511 24.6862 27.6249 24.0172 29.3198 22.5984C31.4149 20.8445 32.75 18.0502 32.75 13.691C32.75 11.2874 31.9496 9.27438 30.6075 7.66707C30.9216 6.65602 31.3159 4.5032 30.2343 1.77427L30.1037 1.44477L29.7662 1.33647L29.537 2.05061C29.7662 1.33647 29.7655 1.33624 29.7647 1.33601L29.7632 1.33553L29.7601 1.33454L29.7533 1.33245L29.7375 1.32782C29.7261 1.32456 29.7128 1.32097 29.6976 1.31716C29.6672 1.30956 29.6294 1.30113 29.5839 1.2929C29.4929 1.27642 29.372 1.26078 29.2204 1.25381C28.9168 1.23983 28.4941 1.26079 27.9459 1.37642C26.9002 1.59702 25.4039 2.16075 23.4031 3.47733C21.6872 3.034 19.8712 2.81274 18.0728 2.80491L18.0663 2.80494C16.2657 2.81274 14.4496 3.03394 12.7358 3.47728C10.7335 2.16062 9.23559 1.59694 8.18867 1.37638C7.63991 1.26078 7.21672 1.23984 6.91279 1.2538C6.76108 1.26077 6.64006 1.27639 6.549 1.29285C6.5035 1.30108 6.46562 1.30948 6.43524 1.31707C6.42005 1.32087 6.40676 1.32446 6.39534 1.32771L6.37963 1.33232L6.37283 1.3344L6.36969 1.33539L6.36819 1.33586C6.36746 1.3361 6.36673 1.33633 6.59543 2.05061L6.36673 1.33633L6.02839 1.44466L5.89788 1.77507C4.81991 4.50405 5.21498 6.65673 5.52908 7.66747C4.18958 9.27375 3.38381 11.2864 3.38381 13.691C3.38381 18.0398 4.71699 20.8345 6.80639 22.5937C8.49979 24.0194 10.6122 24.6963 12.6855 25.0471C12.3962 25.5563 12.1669 26.1654 12.0262 26.8701C11.453 27.0847 10.6644 27.2844 9.84836 27.2114C8.89524 27.1262 7.83815 26.6667 6.99017 25.2174L6.98856 25.2145L6.97361 25.1886C6.96129 25.1675 6.94424 25.1389 6.92248 25.1039C6.879 25.0339 6.81641 24.9378 6.73482 24.8238C6.57233 24.5968 6.33066 24.2935 6.00998 23.9836C5.37374 23.3688 4.38041 22.6855 3.04725 22.5909L3.02545 22.5894L3.0036 22.5891L2.99417 23.3391C3.0036 22.5891 3.00336 22.5891 3.00311 22.5891L3.00258 22.5891L3.00136 22.5891L2.99832 22.5891L2.98988 22.589L2.96403 22.5891C2.94304 22.5893 2.9145 22.5898 2.88004 22.591C2.81179 22.5934 2.71694 22.5987 2.60951 22.6106C2.42448 22.631 2.08838 22.6814 1.80399 22.8436C1.65376 22.9292 1.44891 23.0851 1.33257 23.352C1.20606 23.6422 1.23815 23.9372 1.33925 24.1783C1.5102 24.586 1.91866 24.9437 2.42076 25.2869L2.47071 25.3211L2.51814 25.3433C2.5214 25.345 2.52798 25.3485 2.53764 25.354C2.56122 25.3674 2.60316 25.3924 2.66001 25.4313C2.77361 25.5089 2.9472 25.6421 3.15327 25.8486C3.56095 26.2572 4.10597 26.9627 4.56309 28.1147C4.5671 28.1268 4.57208 28.1415 4.5781 28.1585C4.59305 28.2009 4.61443 28.2581 4.64318 28.3277C4.7006 28.4667 4.78793 28.6562 4.91294 28.8757C5.16241 29.3137 5.56682 29.8792 6.19044 30.3972C7.34476 31.356 9.15477 32.0741 11.8785 31.6863C11.8786 32.5565 11.8739 33.5824 11.8684 34.4797C11.8647 35.0946 11.8606 35.648 11.8574 36.0477L11.8535 36.5203L11.8524 36.6485L11.8521 36.6817L11.8521 36.6902L11.852 36.6923L11.852 36.6928L11.852 36.693L12.602 36.6998L11.852 36.693Z" stroke="#407EF6" stroke-width="1.5"/>
</svg>
