<svg width="31" height="31" viewBox="0 0 31 31" fill="none" xmlns="http://www.w3.org/2000/svg">
<path fill-rule="evenodd" clip-rule="evenodd" d="M15.7486 0.75C7.46568 0.75 0.75 7.46567 0.75 15.7505C0.75 22.3777 5.04755 27.9995 11.0081 29.9839C11.7586 30.1211 12.0321 29.6579 12.0321 29.2601C12.0321 28.9046 12.0192 27.9608 12.0119 26.7094C7.83954 27.6155 6.95921 24.6982 6.95921 24.6982C6.27687 22.9661 5.29342 22.5048 5.29342 22.5048C3.9315 21.5738 5.39655 21.5923 5.39655 21.5923C6.90212 21.6991 7.69404 23.1383 7.69404 23.1383C9.03202 25.4303 11.2052 24.7682 12.0597 24.3852C12.196 23.4155 12.5828 22.7544 13.0119 22.3796C9.68121 22.0011 6.17926 20.7138 6.17926 14.9659C6.17926 13.3287 6.764 11.9898 7.72351 10.9409C7.56881 10.5615 7.05406 9.03662 7.86992 6.97118C7.86992 6.97118 9.12963 6.56786 11.9953 8.50898C13.1914 8.17656 14.4751 8.00989 15.7505 8.00437C17.024 8.00989 18.3076 8.17656 19.5056 8.50898C22.3694 6.56786 23.6264 6.97118 23.6264 6.97118C24.445 9.03662 23.9303 10.5615 23.7756 10.9409C24.7369 11.9898 25.318 13.3287 25.318 14.9659C25.318 20.7285 21.8105 21.9965 18.4688 22.3676C19.0075 22.8308 19.4872 23.7461 19.4872 25.1458C19.4872 27.1504 19.4688 28.7684 19.4688 29.2601C19.4688 29.6616 19.7386 30.1284 20.5001 29.982C26.4561 27.9939 30.75 22.3759 30.75 15.7505C30.75 7.46567 24.0334 0.75 15.7486 0.75Z" fill="#407EF6"/>
</svg>
