<svg xmlns="http://www.w3.org/2000/svg" width="32" height="33" viewBox="0 0 32 33" fill="none">
<path d="M18.7865 30.787L13.2302 25.2244L25.1656 13.1677L30.8243 18.8249L18.7865 30.787Z" fill="#8AB4F8"/>
<path d="M18.8265 6.83031L13.1691 1.17188L1.17284 13.1677C-0.389867 14.729 -0.391162 17.2596 1.17025 18.8222C1.17155 18.8235 1.17284 18.8248 1.17284 18.8248L13.1691 30.8207L18.719 25.2451L9.6537 16.004L18.8265 6.83031Z" fill="#4285F4"/>
<path d="M30.8228 13.1678L18.8265 1.17198C17.2638 -0.390661 14.7306 -0.390661 13.1679 1.17198C11.6052 2.73463 11.6052 5.26777 13.1679 6.82912L25.1707 18.8249C26.7334 20.3876 29.2666 20.3876 30.828 18.8249C32.3907 17.2623 32.3907 14.7292 30.828 13.1678H30.8228Z" fill="#8AB4F8"/>
<path d="M15.9538 32.0036C18.1437 32.0036 19.9189 30.2284 19.9189 28.0386C19.9189 25.8489 18.1437 24.0737 15.9538 24.0737C13.764 24.0737 11.9888 25.8489 11.9888 28.0386C11.9888 30.2284 13.764 32.0036 15.9538 32.0036Z" fill="#246FDB"/>
</svg>