<svg width="32" height="32" viewBox="0 0 32 32" fill="none" xmlns="http://www.w3.org/2000/svg">
<path d="M4.75906 28.4688L2.25781 0.415039H29.7418L27.2378 28.4645L15.9831 31.5845L4.75906 28.4688Z" fill="#E44D26"/>
<path d="M16 29.2L25.0945 26.6785L27.2342 2.70898H16V29.2Z" fill="#F16529"/>
<path d="M15.9998 13.1139H11.4468L11.1323 9.5904H15.9998V6.1499H7.37207L7.45457 7.0729L8.30007 16.5547H15.9998V13.1139ZM15.9998 22.0497L15.9846 22.0539L12.1528 21.0189L11.9081 18.2752H8.45382L8.93582 23.6774L15.9841 25.6339L15.9998 25.6297V22.0497Z" fill="#EBEBEB"/>
<path d="M15.9878 13.1139V16.5547H20.2245L19.8253 21.0169L15.9878 22.0527V25.6324L23.0415 23.6774L23.0933 23.0962L23.9018 14.0379L23.9855 13.1139H23.0585H15.9878ZM15.9878 6.1499V9.5904H24.2988L24.3678 8.8174L24.5248 7.0729L24.607 6.1499H15.9878Z" fill="white"/>
</svg>
