<svg width="32" height="32" viewBox="0 0 32 32" fill="none" xmlns="http://www.w3.org/2000/svg">
<g clip-path="url(#clip0_1_13)">
<path d="M24.0292 10.8322V7.07419C24.5259 6.84208 24.9464 6.47369 25.2418 6.01191C25.5372 5.55013 25.6953 5.01394 25.6979 4.46576V4.37953C25.6979 2.78123 24.4022 1.48555 22.804 1.48555H22.7176C21.1193 1.48555 19.8237 2.78123 19.8237 4.37953V4.46576C19.8262 5.01394 19.9844 5.55013 20.2798 6.01191C20.5752 6.47369 20.9956 6.84208 21.4923 7.07419V10.8322C20.0649 11.0508 18.7207 11.6426 17.5957 12.5478L7.28907 4.52002C7.36256 4.25471 7.40089 3.9819 7.40522 3.70807C7.40648 3.0631 7.21643 2.43225 6.85911 1.89531C6.50179 1.35838 5.99326 0.939473 5.39783 0.691592C4.8024 0.44371 4.14683 0.377986 3.51405 0.502734C2.88126 0.627483 2.29969 0.937098 1.84289 1.39242C1.38609 1.84774 1.07459 2.4283 0.94779 3.06068C0.82099 3.69306 0.884587 4.34884 1.13054 4.94507C1.37649 5.54129 1.79374 6.05119 2.32951 6.41025C2.86529 6.76931 3.49552 6.9614 4.14048 6.96223C4.70471 6.95957 5.25837 6.80894 5.74617 6.52537L15.8952 14.4229C14.0293 17.2416 14.0793 20.9152 16.0209 23.6823L12.9341 26.77C12.6845 26.6903 12.4247 26.6479 12.1627 26.6443C10.6844 26.6456 9.48674 27.8444 9.48713 29.3228C9.48751 30.801 10.6859 31.9992 12.1641 31.9996C13.6424 32 14.8413 30.8024 14.8426 29.324C14.8391 29.0621 14.7967 28.8022 14.7167 28.5527L17.7704 25.4979C20.499 27.5984 24.2464 27.7794 27.1647 25.9515C30.0829 24.1236 31.5556 20.6728 30.8564 17.3012C30.1571 13.9295 27.4337 11.3491 24.0292 10.8322ZM22.7635 23.1921C22.1993 23.2072 21.6379 23.1092 21.1122 22.9038C20.5866 22.6984 20.1074 22.3898 19.703 21.9961C19.2986 21.6025 18.9772 21.1318 18.7577 20.6118C18.5383 20.0919 18.4252 19.5333 18.4252 18.9689C18.4252 18.4045 18.5383 17.8459 18.7577 17.326C18.9772 16.806 19.2986 16.3354 19.703 15.9417C20.1074 15.548 20.5866 15.2394 21.1122 15.034C21.6379 14.8286 22.1993 14.7306 22.7635 14.7457C25.037 14.8253 26.8392 16.6909 26.8404 18.9658C26.8415 21.2406 25.0412 23.108 22.7677 23.1899" fill="#FF7A59"/>
</g>
<defs>
<clipPath id="clip0_1_13">
<rect width="32" height="32" fill="white"/>
</clipPath>
</defs>
</svg>
