<svg width="32" height="32" viewBox="0 0 32 32" fill="none" xmlns="http://www.w3.org/2000/svg">
<path d="M0.352051 0.352051H31.6481V31.6483H0.352051V0.352051Z" fill="#F0DB4F"/>
<path d="M29.0869 24.1842C28.8576 22.7565 27.9266 21.5572 25.1689 20.439C24.2109 19.9987 23.1429 19.6835 22.8246 18.9575C22.7116 18.535 22.6966 18.297 22.7681 18.0412C22.9734 17.2112 23.9641 16.9525 24.7494 17.1905C25.2551 17.36 25.7339 17.7497 26.0226 18.3715C27.3731 17.497 27.3704 17.5027 28.3134 16.9017C27.9681 16.3665 27.7839 16.1195 27.5579 15.8905C26.7456 14.9832 25.6389 14.516 23.8689 14.5517L22.9469 14.671C22.0634 14.8942 21.2214 15.358 20.7276 15.9797C19.2461 17.6607 19.6686 20.6027 21.4714 21.8135C23.2474 23.1465 25.8564 23.4497 26.1896 24.6962C26.5139 26.2222 25.0681 26.7162 23.6311 26.5407C22.5721 26.3205 21.9831 25.7822 21.3464 24.8035C20.1744 25.4817 20.1744 25.4817 18.9694 26.1747C19.2551 26.7995 19.5554 27.0822 20.0344 27.6235C22.3014 29.923 27.9744 29.81 28.9919 26.3295C29.0331 26.21 29.3071 25.413 29.0869 24.1842V24.1842ZM17.3656 14.736H14.4384L14.4264 22.304C14.4264 23.9135 14.5096 25.389 14.2479 25.8412C13.8196 26.7307 12.7099 26.6205 12.2041 26.448C11.6894 26.195 11.4276 25.8352 11.1244 25.3267C11.0411 25.1807 10.9786 25.0677 10.9576 25.059L8.57764 26.5165C8.97339 27.3287 9.55639 28.0337 10.3031 28.4917C11.4186 29.1612 12.9179 29.3665 14.4859 29.0065C15.5064 28.7092 16.3869 28.0935 16.8479 27.1562C17.5144 25.9275 17.3714 24.4402 17.3654 22.7952C17.3804 20.1115 17.3656 17.4282 17.3656 14.736V14.736Z" fill="#323330"/>
</svg>
