<svg width="30" height="30" viewBox="0 0 30 30" fill="none" xmlns="http://www.w3.org/2000/svg">
<path d="M0 2.12947C0 0.953428 0.953369 6.10352e-05 2.12941 6.10352e-05H27.8706C29.0466 6.10352e-05 30 0.953429 30 2.12947V27.8706C30 29.0466 29.0466 30 27.8706 30H2.12941C0.95337 30 0 29.0466 0 27.8706V2.12947Z" fill="#407EF6"/>
<path d="M6.73363 9.31656C8.17094 9.31656 9.33612 8.15138 9.33612 6.71407C9.33612 5.27675 8.17094 4.11157 6.73363 4.11157C5.29631 4.11157 4.13113 5.27675 4.13113 6.71407C4.13113 8.15138 5.29631 9.31656 6.73363 9.31656Z" fill="white"/>
<path d="M11.7196 11.2399H16.0327V13.2158C16.0327 13.2158 17.2032 10.8749 20.3878 10.8749C23.2286 10.8749 25.5819 12.2743 25.5819 16.5399V25.5349H21.1122V17.6299C21.1122 15.1136 19.7688 14.8368 18.7451 14.8368C16.6206 14.8368 16.2569 16.6693 16.2569 17.9581V25.5349H11.7196V11.2399Z" fill="white"/>
<path d="M4.46497 11.2399H9.00229V25.5349H4.46497V11.2399Z" fill="white"/>
</svg>
