<svg width="32" height="37" viewBox="0 0 32 37" fill="none" xmlns="http://www.w3.org/2000/svg">
<g clip-path="url(#clip0_1_51)">
<path d="M30.7144 32.727C30.6002 32.8412 30.4574 32.8983 30.2861 32.8983C30.1147 32.8983 29.9719 32.8412 29.8577 32.727C29.7435 32.6128 29.6863 32.47 29.6863 32.2986C29.6863 32.1273 29.7435 31.9702 29.872 31.856C29.9862 31.7417 30.129 31.6989 30.2861 31.6989C30.4574 31.6989 30.6002 31.756 30.7144 31.8703C30.8286 31.9845 30.8858 32.1273 30.8858 32.2986C30.9 32.47 30.8429 32.6128 30.7144 32.727ZM29.9434 31.9416C29.8434 32.0416 29.8006 32.1558 29.8006 32.2843C29.8006 32.4271 29.8434 32.5414 29.9434 32.6413C30.0433 32.7413 30.1575 32.7841 30.3003 32.7841C30.4431 32.7841 30.5573 32.7413 30.6573 32.6413C30.7573 32.5414 30.8001 32.4271 30.8001 32.2843C30.8001 32.1558 30.7573 32.0273 30.6573 31.9416C30.5573 31.8417 30.4431 31.7846 30.3003 31.7846C30.1575 31.7989 30.0433 31.8417 29.9434 31.9416ZM30.486 32.5985C30.4288 32.6413 30.3717 32.6556 30.3146 32.6556C30.2289 32.6556 30.1433 32.627 30.0719 32.5556C30.0005 32.4842 29.9719 32.3986 29.9719 32.2986C29.9719 32.1987 30.0005 32.113 30.0576 32.0416C30.1147 31.9702 30.2004 31.9416 30.3003 31.9416C30.3574 31.9416 30.4146 31.9559 30.4717 31.9845C30.5431 32.0273 30.6002 32.0987 30.6145 32.2129H30.4574C30.4431 32.1701 30.4288 32.1273 30.4003 32.113C30.3717 32.0987 30.3432 32.0844 30.3146 32.0844C30.2718 32.0844 30.2289 32.0987 30.2004 32.1416C30.1718 32.1844 30.1575 32.2415 30.1575 32.3129C30.1575 32.3843 30.1718 32.4414 30.2004 32.47C30.2289 32.4985 30.2718 32.5271 30.3146 32.5271C30.3574 32.5271 30.386 32.5128 30.4146 32.4985L30.4574 32.4129H30.6002C30.5859 32.4985 30.5431 32.5556 30.486 32.5985ZM31.9995 26.2586C31.9995 26.2015 31.9852 26.1444 31.9852 26.0873C31.9852 26.0445 31.971 26.0159 31.971 25.9873C31.9567 25.9017 31.9424 25.8303 31.9138 25.7446C31.8567 25.5875 31.7711 25.4305 31.6568 25.302C31.5426 25.1735 31.4141 25.0735 31.2856 25.0021C31.1428 24.9307 31 24.8879 30.8858 24.8593C30.8429 24.8593 30.8144 24.845 30.7858 24.845C30.9429 24.1597 30.743 23.6313 30.6145 23.3886L30.643 23.36C30.8144 23.1887 30.9572 23.0316 31.0857 22.8745L31.1142 22.846C31.2142 22.7032 31.2713 22.5604 31.3141 22.4319C31.3427 22.3177 31.3712 22.2177 31.3712 22.1178V22.0321V21.975V21.8465C31.357 21.6323 31.3284 21.361 31.1856 21.0611C31.1142 20.9183 31.0143 20.7613 30.8858 20.6185C30.7573 20.4757 30.6002 20.3472 30.4146 20.2472C30.4003 20.233 30.386 20.233 30.3717 20.2187C29.9862 19.6618 29.5578 19.2192 29.1723 18.8907C28.9724 18.7194 28.7868 18.5766 28.6297 18.4624C28.4726 18.3481 28.3441 18.2625 28.2727 18.2054C28.1014 18.0768 27.9729 18.0054 27.9158 17.9769C27.773 17.8912 27.673 17.8198 27.6159 17.777C27.5731 17.7341 27.5445 17.7199 27.5302 17.7056C27.5302 17.7056 27.5302 17.6913 27.5159 17.6628C27.5017 17.6199 27.5017 17.5628 27.5017 17.4628C27.5017 17.3201 27.5017 17.1059 27.5159 16.8203C27.5445 16.3634 27.5873 15.7494 27.6445 14.9069C27.6587 14.6356 27.6587 14.3786 27.6587 14.1501C27.6445 13.7646 27.5873 13.4219 27.5159 13.1078C27.5017 13.0364 27.4731 12.965 27.4588 12.8936C27.4446 12.8365 27.4303 12.8079 27.416 12.7794C27.4017 12.7365 27.3874 12.6937 27.3589 12.6366C27.3446 12.608 27.3446 12.5795 27.316 12.5509C27.2875 12.4795 27.2589 12.4081 27.2161 12.3367L27.2018 12.3224L27.1875 12.2796L27.1733 12.2511C27.1019 12.1225 27.0162 12.0083 26.9305 11.9084C26.8877 11.7085 26.8163 11.4229 26.6878 11.0945C26.5735 10.8089 26.4307 10.4947 26.2166 10.1806C26.1452 10.0664 26.0595 9.96643 25.9738 9.86648L26.0024 9.83792C26.0452 9.79508 27.0447 8.73844 27.8444 7.36767C29.3151 4.81175 28.8296 3.25535 28.1585 2.39861L28.1442 2.37006L28.1299 2.3415C27.4874 1.62755 26.6021 1.19919 25.5312 1.0564C23.2894 0.77082 20.7477 1.88457 20.0766 2.19871L18.8487 0.856493C18.7344 0.742262 18.6202 0.628031 18.4917 0.542357C18.3632 0.456684 18.2204 0.371011 18.0776 0.299616C17.792 0.171106 17.4779 0.0854326 17.1352 0.042596C16.4641 -0.0430774 15.693 0.042596 14.8648 0.256779C13.6226 0.570915 12.2375 1.19919 10.7811 2.0702C9.32463 2.94121 7.81107 4.06924 6.34034 5.41146C4.5412 7.03925 3.0562 8.767 1.971 10.4234C1.4284 11.2373 0.985756 12.0369 0.657341 12.8079C0.328927 13.5647 0.114743 14.2929 0.0290698 14.9498C-0.0280457 15.4352 -0.0280457 15.8922 0.0719065 16.3063C0.114743 16.4919 0.171859 16.6632 0.257532 16.8346C0.357484 17.0488 0.485994 17.2487 0.643062 17.42L1.91388 18.7479L2.05667 18.8907L2.04239 18.905L1.99956 18.9907C1.971 19.0335 1.95672 19.0764 1.92816 19.1049L1.88533 19.1906C1.87105 19.2334 1.84249 19.2763 1.82821 19.3191L1.78537 19.4048C1.7711 19.4476 1.74254 19.4905 1.72826 19.5333C1.71398 19.5618 1.6997 19.5904 1.6997 19.619L1.65686 19.7475C1.64259 19.776 1.64259 19.8046 1.62831 19.8331C1.61403 19.876 1.59975 19.9188 1.58547 19.9759C1.58547 19.9902 1.57119 20.0045 1.57119 20.0188C1.57119 20.033 1.55691 20.0473 1.55691 20.0616C1.54263 20.1044 1.52835 20.1616 1.51408 20.2044C1.51408 20.233 1.4998 20.2615 1.4998 20.2901C1.4998 20.3043 1.48552 20.3329 1.48552 20.3472C1.48552 20.3757 1.47124 20.4043 1.47124 20.4329C1.47124 20.4614 1.45696 20.49 1.45696 20.5185C1.44268 20.5756 1.44268 20.6328 1.4284 20.7042C1.4284 20.7184 1.4284 20.7327 1.41412 20.7613V20.7756C1.41412 20.8184 1.39984 20.8612 1.39984 20.8898C1.39984 20.9469 1.38557 21.0183 1.38557 21.0754V21.7894C1.38557 21.8179 1.38557 21.8465 1.39984 21.875C1.39984 21.9036 1.39984 21.9464 1.41412 21.9893V22.0321C1.41412 22.0607 1.4284 22.1035 1.4284 22.132C1.4284 22.1606 1.44268 22.1892 1.44268 22.232C1.44268 22.2463 1.44268 22.2606 1.45696 22.2748C1.45696 22.2891 1.47124 22.3177 1.47124 22.332V22.3605C1.47124 22.3891 1.48552 22.4176 1.4998 22.4747C1.4998 22.489 1.4998 22.489 1.51408 22.5033C1.52835 22.5319 1.52835 22.5604 1.52835 22.5747L1.54263 22.6033C1.54263 22.6175 1.54263 22.6175 1.55691 22.6318L1.57119 22.6604V22.7032C1.57119 22.7175 1.57119 22.7175 1.58547 22.7318L1.59975 22.7603C1.59975 22.7889 1.61403 22.8032 1.61403 22.8317C1.62831 22.8603 1.62831 22.8888 1.64259 22.9459C1.64259 22.9602 1.64259 22.9602 1.65686 22.9745C1.67114 23.0173 1.68542 23.0459 1.68542 23.0602C1.6997 23.0887 1.71398 23.1173 1.72826 23.1744L1.74254 23.1887C1.75682 23.2172 1.75682 23.2458 1.7711 23.2601L1.78537 23.2886C1.78537 23.3029 1.79965 23.3172 1.79965 23.3315C1.79965 23.3458 1.81393 23.3743 1.82821 23.3886L1.84249 23.4171C1.85677 23.4314 1.85677 23.46 1.87105 23.4743C1.88533 23.4885 1.88533 23.5028 1.88533 23.5171C1.89961 23.5457 1.91388 23.5742 1.92816 23.6171L1.94244 23.6313C1.95672 23.6456 1.95672 23.6599 1.971 23.6742C1.98528 23.6884 1.98528 23.717 1.99956 23.7313C2.01384 23.7456 2.02812 23.7741 2.04239 23.817L2.05667 23.8312C2.07095 23.8455 2.07095 23.8598 2.08523 23.8741C2.09951 23.9026 2.11379 23.9169 2.11379 23.9312C2.12807 23.9455 2.14235 23.974 2.15663 24.0026V24.0169C2.1709 24.0311 2.1709 24.0454 2.18518 24.0597C2.19946 24.0883 2.21374 24.1025 2.22802 24.1168C2.2423 24.1311 2.25658 24.1597 2.28514 24.2025C2.29941 24.2168 2.31369 24.231 2.31369 24.2453C2.32797 24.2739 2.34225 24.2882 2.35653 24.3024C2.37081 24.3167 2.38509 24.3453 2.39937 24.3738C2.41365 24.3881 2.42792 24.4167 2.4422 24.431C2.45648 24.4595 2.47076 24.4738 2.49932 24.4881L2.54216 24.5309L2.55643 24.5452C2.58499 24.5737 2.59927 24.6023 2.62783 24.6309L2.65639 24.6594L2.69922 24.7022L2.7849 24.7879L2.81345 24.8165L2.85629 24.8593L2.87057 24.8736C2.89913 24.9022 2.94196 24.9307 2.97052 24.9735L2.9848 24.9878C2.99908 25.0021 3.01336 25.0021 3.02764 25.0307C3.07047 25.0735 3.11331 25.1021 3.15615 25.1449L3.18471 25.1592L3.19898 25.1735L3.22754 25.1877C3.27038 25.2163 3.29894 25.2448 3.34177 25.2734L3.35605 25.2877C3.37033 25.302 3.38461 25.302 3.38461 25.302L3.41317 25.3305C3.44173 25.3591 3.47028 25.3734 3.49884 25.4019L3.5274 25.4162L3.55596 25.4448L3.57024 25.459C3.59879 25.4733 3.64163 25.5019 3.67019 25.5161C3.68447 25.5304 3.69875 25.5447 3.7273 25.5447L3.75586 25.559L3.77014 25.5733H3.78442C3.84154 25.6018 3.88437 25.6304 3.92721 25.6589L3.95577 25.6732L4.12711 25.7589H4.14139L4.16995 25.7732L4.25562 25.816C4.2699 25.816 4.28418 25.8303 4.29846 25.8303C4.31274 25.8446 4.32702 25.8446 4.35558 25.8588H4.36985C4.39841 25.8731 4.42697 25.8874 4.45553 25.8874H4.46981C4.49836 25.9017 4.52692 25.916 4.56976 25.9302H4.58404L4.6126 25.9445C4.62687 25.9445 4.64115 25.9588 4.65543 25.9588H4.66971C4.71255 25.9731 4.75538 25.9874 4.8125 26.0016H4.82678C4.89817 26.0302 4.96957 26.0445 5.04096 26.0587H5.05524C5.11236 26.073 5.18375 26.0873 5.24087 26.1016H5.29798C5.3551 26.1159 5.41221 26.1301 5.46933 26.1301H5.52644C5.56928 26.1301 5.59784 26.1444 5.64068 26.1444C5.64068 26.1587 5.65495 26.173 5.65495 26.1873C5.75491 26.4586 5.85486 26.7299 5.96909 26.9869C7.654 31.6561 12.3232 35.2829 17.6492 35.954C22.9753 36.6108 28.6725 33.0697 30.9857 28.2863C31.0857 28.1006 31.1713 27.9293 31.257 27.7437C31.4855 27.5009 31.6711 27.2582 31.7853 27.0012C31.971 26.8441 32.0138 26.5299 31.9995 26.2586Z" fill="#664F44"/>
<path d="M27.4446 2.89874C27.1876 2.61316 26.8877 2.39897 26.5593 2.24191C26.5022 2.21335 26.4451 2.19907 26.3737 2.18479C26.3451 2.17051 26.3166 2.14195 26.288 2.12768C26.0024 2.01344 25.7026 1.94205 25.3884 1.89921C23.8463 1.69931 22.0757 2.27046 21.0762 2.67027C21.0191 2.69883 20.962 2.71311 20.9049 2.74167C20.8192 2.7845 20.7335 2.81306 20.6478 2.8559C20.505 2.91301 20.3623 2.98441 20.2052 3.0558C20.1766 3.07008 20.1624 3.07008 20.1338 3.08436L19.8625 2.77023L19.734 2.62744L19.6198 2.49893L19.5769 2.44181L18.5346 1.24238L18.4489 1.14243L18.3347 1.01392H18.3204L18.0205 1.08532L17.6778 1.15671C17.4922 1.07104 17.2637 1.01392 17.0067 0.971084C16.4927 0.89969 15.8358 0.971084 15.0933 1.15671C14.3508 1.34234 13.5084 1.67075 12.6231 2.1134C10.8382 2.99869 8.86774 4.35518 6.95437 6.09721C6.28326 6.69692 5.66927 7.32519 5.09812 7.93919C4.54124 8.5389 4.04148 9.15289 3.58455 9.73833C2.65643 10.952 1.95676 12.1229 1.49983 13.1795C1.19998 13.8792 1.01435 14.5218 0.942958 15.0786C0.885842 15.4784 0.900121 15.8354 0.971516 16.121C1.00007 16.2209 1.02863 16.2923 1.05719 16.378C1.12858 16.5494 1.21426 16.6922 1.32849 16.8207L2.48508 18.0344L2.61359 18.1629L2.62787 18.1486C2.65643 18.1058 2.69926 18.0629 2.7421 18.0344L2.75638 18.0201L2.79921 17.9773C2.82777 17.9344 2.87061 17.9059 2.89917 17.863C2.92772 17.8345 2.942 17.8202 2.97056 17.8059C2.99912 17.7916 3.0134 17.7631 3.04196 17.7488L3.07051 17.7202C3.09907 17.706 3.11335 17.6774 3.14191 17.6631C3.17047 17.6346 3.2133 17.606 3.24186 17.5774C3.25614 17.5632 3.2847 17.5489 3.29898 17.5346H3.31325C3.35609 17.506 3.38465 17.4775 3.42749 17.4489C3.45604 17.4347 3.47032 17.4204 3.49888 17.3918C3.54172 17.3633 3.57027 17.3347 3.61311 17.3061C3.64167 17.2919 3.65595 17.2776 3.68451 17.2633C3.72734 17.2347 3.77018 17.2062 3.81302 17.1919C3.84157 17.1776 3.85585 17.1634 3.88441 17.1491C3.92725 17.1205 3.97008 17.1062 4.01292 17.0777C4.04148 17.0634 4.05576 17.0491 4.08431 17.0348L4.11287 17.0206C4.15571 17.0063 4.18427 16.9777 4.2271 16.9635C4.24138 16.9492 4.26994 16.9492 4.28422 16.9349C4.31278 16.9206 4.34134 16.9063 4.38417 16.8921L4.46984 16.8492L4.4984 16.8349L4.71259 16.7493C4.74114 16.735 4.75542 16.735 4.78398 16.7207C4.81254 16.7064 4.82682 16.7064 4.85538 16.6922L4.88393 16.6779C4.89821 16.6779 4.91249 16.6636 4.92677 16.6636C4.95533 16.6493 4.98389 16.6493 5.02672 16.635H5.05528C5.09812 16.6208 5.12667 16.6208 5.16951 16.6065C5.19807 16.5922 5.24091 16.5922 5.26946 16.5779C5.3123 16.5636 5.35514 16.5636 5.39797 16.5494C5.41225 16.5494 5.42653 16.5351 5.45509 16.5351C5.46937 16.5351 5.49793 16.5351 5.5122 16.5208C5.55504 16.5065 5.59788 16.5065 5.64071 16.5065C5.68355 16.5065 5.71211 16.4922 5.75495 16.4922C5.7835 16.4922 5.81206 16.478 5.84062 16.478H5.95485C6.09764 16.478 6.26899 16.478 6.44033 16.4922H6.46889C6.64024 16.5065 6.84014 16.5351 7.04005 16.5779C7.08288 16.5922 7.14 16.5922 7.18283 16.6065C7.19711 16.5922 7.19711 16.5636 7.21139 16.5494C7.32562 16.3637 7.42558 16.1638 7.53981 15.9782C8.18236 14.9073 8.86774 13.9649 9.56741 13.1367C9.81015 12.8511 10.0529 12.5941 10.2956 12.3371C11.3094 11.2804 12.3232 10.4666 13.2371 9.83828C13.437 9.69549 13.6512 9.56698 13.8368 9.43847C14.1081 9.26712 14.3651 9.12434 14.6079 8.98155C14.8078 8.86731 14.9934 8.76736 15.179 8.68169C15.4789 8.52462 15.7502 8.39611 15.9929 8.29616L16.2071 8.21049C16.3071 8.16765 16.407 8.12481 16.4927 8.09625C16.4213 8.08198 16.3356 8.08198 16.2642 8.08198H15.9786C15.9072 8.08198 15.8216 8.08198 15.7502 8.09625C15.6074 8.11053 15.4503 8.12481 15.2932 8.13909C15.2361 8.15337 15.1933 8.15337 15.1362 8.16765C15.5217 7.96774 15.9072 7.82496 16.2642 7.71072C16.507 7.63933 16.7497 7.58221 16.9782 7.53938C17.2923 7.48226 17.5922 7.43942 17.8634 7.42515C18.0491 7.41087 18.2204 7.41087 18.3775 7.41087C18.5346 7.41087 18.6916 7.42515 18.8201 7.42515C19.2913 7.4537 19.5769 7.5251 19.5769 7.5251C19.5055 7.42515 19.4198 7.35375 19.3342 7.28236C19.1628 7.15385 18.9772 7.06817 18.8059 6.99678C18.7345 6.96822 18.6773 6.95394 18.6202 6.92538C18.5774 6.91111 18.5346 6.89683 18.506 6.89683C18.5917 6.88255 18.6631 6.86827 18.7345 6.86827C18.8201 6.85399 18.8915 6.85399 18.9772 6.83971C19.6483 6.7826 20.248 6.83971 20.6907 6.91111C21.219 7.01106 21.5474 7.13957 21.5474 7.13957C21.476 6.99678 21.3618 6.86827 21.2333 6.75404C21.1476 6.68264 21.0476 6.61125 20.962 6.55413C21.1476 6.59697 21.3047 6.63981 21.476 6.69692C21.9044 6.82543 22.2613 6.9825 22.5469 7.11101L22.8039 7.23952C22.8325 7.2538 22.8468 7.26808 22.8611 7.26808C23.1181 7.41087 23.2609 7.51082 23.2609 7.51082C23.218 7.35375 23.1324 7.21096 23.0181 7.08245C22.9896 7.05389 22.961 7.01106 22.9325 6.9825H22.9467C22.961 6.9825 22.9753 6.99678 23.0039 6.99678C23.0181 6.99678 23.0467 7.01106 23.0752 7.02534C23.1895 7.06817 23.3608 7.13957 23.5607 7.23952C23.575 7.23952 23.575 7.2538 23.5893 7.2538L23.675 7.29664C23.7464 7.33947 23.8178 7.36803 23.8891 7.42515L24.1033 7.55366C24.1462 7.58221 24.1747 7.59649 24.2176 7.62505C24.289 7.68217 24.3746 7.73928 24.446 7.81068C24.5317 7.88207 24.6031 7.95347 24.6745 8.02486L24.7173 8.0677C24.7744 8.12481 24.8316 8.18193 24.8744 8.23904C24.9743 8.35327 25.06 8.48178 25.1457 8.61029C25.2456 8.76736 25.317 8.95299 25.3884 9.13861C25.3884 9.15289 25.3884 9.16717 25.4027 9.16717C25.4455 9.12433 25.5312 9.03866 25.6312 8.92443C26.4593 7.95347 28.9439 4.81211 27.4446 2.89874Z" fill="#132134"/>
<path d="M31.1428 26.3589C31.1428 26.3589 31.1713 26.1447 31.0571 25.9448C31.0571 25.9305 31.0428 25.9162 31.0428 25.9162L31.0286 25.902L30.9857 25.8591C30.9572 25.8306 30.9286 25.802 30.8858 25.7734C30.8715 25.7592 30.8429 25.7449 30.8144 25.7306C30.743 25.702 30.6716 25.6735 30.5716 25.6592C30.5002 25.6449 30.4288 25.6449 30.3432 25.6449H30.2289V25.6735C30.2289 25.6878 30.2432 25.702 30.2432 25.7306C30.2432 25.7449 30.2432 25.7592 30.2575 25.7592C30.2718 25.802 30.2861 25.8734 30.3003 25.9305C30.3003 25.9305 30.3003 25.9448 30.2861 25.9733V25.9876C30.2432 26.0876 30.129 26.316 29.872 26.6016C29.8291 26.6587 29.7863 26.7016 29.7292 26.7587C29.0152 27.5012 27.4731 28.5435 24.2175 29.129C23.1181 29.2861 22.09 29.3003 21.2332 29.1861C19.9481 29.029 18.9915 28.6149 18.5345 28.0581C18.4917 28.0152 18.4631 27.9581 18.4203 27.9153C18.3917 27.8724 18.3775 27.8439 18.3489 27.801C18.3346 27.7868 18.3346 27.7725 18.3203 27.7582C18.1347 27.4155 18.049 27.0443 18.049 26.6873C18.049 26.2446 18.1918 25.8306 18.4203 25.5164C18.6059 25.2594 18.8487 25.0595 19.1485 24.9738C19.2913 24.931 19.4484 24.9024 19.6054 24.9167C19.634 24.9167 19.6768 24.9167 19.734 24.931C19.8339 24.9453 19.991 24.9595 20.1766 24.9881C20.1909 24.9881 20.2194 24.9881 20.2337 25.0024C20.8477 25.0738 21.8187 25.1737 22.9895 25.1023C25.1314 24.9738 27.9443 24.3027 30.5002 21.9895V21.9753C30.5145 21.7753 30.486 21.4327 30.2432 21.1614C30.2004 21.1185 30.1575 21.0757 30.1004 21.0328C30.0719 21.0043 30.029 20.99 30.0005 20.9615C29.9576 20.9472 29.9291 20.9186 29.9005 20.9043L29.772 20.8187V20.8044C29.7577 20.7758 29.7435 20.7473 29.7149 20.7187C29.0581 19.7192 28.1442 19.1338 27.773 18.8625C27.6016 18.7339 27.4874 18.6768 27.4874 18.6768C26.7021 18.1913 26.5878 18.0343 26.6592 16.7349C26.6878 16.2637 26.7306 15.6497 26.7877 14.8072C26.7877 14.693 26.802 14.5931 26.802 14.4931V14.4217V14.079C26.802 14.0076 26.7877 13.9362 26.7877 13.8791C26.7877 13.8506 26.7877 13.822 26.7734 13.7934C26.7592 13.7221 26.7592 13.6507 26.7449 13.5793C26.7449 13.5507 26.7306 13.5079 26.7306 13.4793C26.7306 13.4365 26.7163 13.4079 26.7021 13.3651C26.6878 13.3365 26.6878 13.2937 26.6735 13.2651C26.6592 13.2223 26.6449 13.1795 26.6449 13.1366C26.6449 13.1223 26.6307 13.1081 26.6307 13.0938C26.6307 13.0795 26.6164 13.0652 26.6164 13.0509V13.0367L26.6021 12.9938C26.5878 12.9653 26.5735 12.9367 26.5735 12.9082V12.8939L26.5593 12.8653L26.545 12.8368C26.5164 12.7796 26.5021 12.7225 26.4736 12.6797L26.4593 12.6369C26.4308 12.594 26.4022 12.5369 26.3736 12.4941L26.3594 12.4798L26.3451 12.4655C26.3165 12.437 26.3022 12.4084 26.2737 12.3798L26.2451 12.337C26.2166 12.2942 26.188 12.2656 26.1595 12.237V12.1228C26.1452 12.0657 26.1309 11.9943 26.1166 11.9229C26.1166 11.9086 26.1023 11.8801 26.1023 11.8658V11.8515C26.1023 11.823 26.0881 11.8087 26.0881 11.7801C26.0738 11.723 26.0595 11.6659 26.0309 11.6088C26.0309 11.5945 26.0167 11.5659 26.0167 11.5517L25.9738 11.4232C25.9596 11.3946 25.9596 11.366 25.9453 11.3518C25.931 11.3089 25.9167 11.2661 25.8882 11.2232L25.8453 11.1376C25.831 11.0947 25.8025 11.0519 25.7882 11.0091L25.7454 10.9234C25.7168 10.8806 25.7025 10.8377 25.674 10.7949L25.6311 10.7092C25.6026 10.6664 25.574 10.6235 25.5455 10.5664C25.5312 10.5379 25.5169 10.5236 25.5026 10.495C25.4883 10.4807 25.4741 10.4522 25.4598 10.4379C25.417 10.3951 25.3884 10.3522 25.3456 10.3094L25.317 10.2951C25.2599 10.238 25.217 10.1809 25.1599 10.138L25.1457 10.1238C25.1171 10.1095 25.0885 10.0809 25.0743 10.0667H25.06C25.0314 10.0524 25.0171 10.0381 24.9886 10.0238L24.9743 10.0095C24.9457 9.99526 24.9029 9.9667 24.8458 9.93814C24.8315 9.92387 24.803 9.92387 24.7744 9.90959C24.6459 9.86675 24.4888 9.80964 24.2889 9.75252C24.2746 9.75252 24.2604 9.75252 24.2461 9.73824C24.089 9.6954 23.9034 9.65257 23.7035 9.62401C23.6321 9.60973 23.575 9.60973 23.5036 9.59545C23.475 9.59545 23.4465 9.59545 23.4036 9.58117H23.3608C23.2037 9.56689 23.0609 9.55261 22.9039 9.55261H22.8896C22.6897 9.55261 22.4898 9.56689 22.3042 9.60973C22.347 9.53834 22.4755 9.45266 22.5897 9.38127C22.7468 9.29559 22.8896 9.23848 22.8896 9.23848C22.8039 9.23848 22.7182 9.25276 22.6326 9.26704C22.604 9.26704 22.5755 9.28132 22.5469 9.28132C22.5326 9.28132 22.5041 9.28132 22.4898 9.29559H22.4755C22.4612 9.29559 22.4469 9.29559 22.4327 9.30987C21.99 9.40983 21.5617 9.56689 21.3189 9.66685L21.2332 9.70968H21.219C21.1904 9.70968 21.1761 9.70968 21.1476 9.72396C21.3189 9.39555 21.5759 9.2242 21.7758 9.13853C21.8044 9.12425 21.8472 9.10997 21.8758 9.09569C21.8901 9.09569 21.8901 9.09569 21.9043 9.08141C21.9329 9.06713 21.9615 9.06713 21.9757 9.05285C22.0186 9.03857 22.0471 9.03857 22.0471 9.03857H21.8187C21.3332 9.09569 20.8905 9.25276 20.5193 9.46694C20.2623 9.60973 20.0338 9.7668 19.8339 9.92387C19.7768 9.93814 19.734 9.95242 19.6768 9.95242C19.1342 10.0667 18.5202 10.2094 17.8777 10.4093C17.635 10.4807 17.3922 10.5664 17.1495 10.6521C16.9638 10.7235 16.7639 10.7949 16.5783 10.8663C16.4355 10.9234 16.307 10.9805 16.1642 11.0376C15.179 11.4803 14.1937 12.0657 13.3798 12.851L13.2942 12.9367L13.08 13.1509L12.9943 13.2366C12.9658 13.2794 12.9229 13.3222 12.8944 13.3508C12.7373 13.5221 12.5945 13.7078 12.4517 13.9077C12.3518 14.0505 12.2518 14.2075 12.1661 14.3646L12.1519 14.3789C11.9662 14.7073 11.7949 15.05 11.6664 15.4355C11.595 15.6211 11.5379 15.8211 11.4808 16.021C11.4665 16.0781 11.4522 16.1209 11.4379 16.178L11.4236 16.2066C11.3665 16.4208 11.3237 16.6492 11.2951 16.8777C11.2951 16.9205 11.2808 16.9634 11.2808 17.0205C11.2666 17.1347 11.2523 17.2489 11.2523 17.3775C11.238 17.4917 11.238 17.5916 11.238 17.7059V18.1485C11.238 18.277 11.238 18.4055 11.2523 18.534V18.5483C11.2523 18.6768 11.2666 18.8053 11.2808 18.9481C11.2808 19.0052 11.2951 19.0624 11.2951 19.1195V19.1623C11.2951 19.1909 11.2951 19.2194 11.3094 19.2623C11.3237 19.4051 11.3522 19.5621 11.3665 19.7192C11.3665 19.762 11.3808 19.8049 11.3808 19.8477C11.4094 19.9762 11.4236 20.119 11.4522 20.2475C11.4522 20.2475 11.4236 20.0762 11.4379 19.8191C11.4379 19.762 11.4522 19.6906 11.4522 19.6335C11.4665 19.4907 11.495 19.3194 11.5521 19.1623L11.595 19.0338C11.595 19.0195 11.6093 19.0052 11.6235 18.9767C11.6521 18.9053 11.6949 18.8196 11.7378 18.7482C11.7521 18.8053 11.7521 18.8625 11.7663 18.9053V19.6621C11.7806 20.1476 11.8234 20.733 11.9234 21.2328C11.9234 21.2328 11.9377 20.3332 12.0947 20.219C12.0947 20.219 12.366 21.9039 12.6088 22.5321C12.6373 22.6178 12.6802 22.6749 12.7087 22.7178V22.5464L12.6802 21.6183V21.5183C12.8658 21.9039 13.08 22.2894 13.3227 22.7035C13.3941 22.8177 13.4512 22.9319 13.5226 23.0462C13.0657 23.446 12.6373 24.0314 12.3232 24.7168C12.2804 24.831 12.2233 24.9453 12.1804 25.0595C12.1519 25.1309 12.1376 25.188 12.109 25.2594C12.109 25.2737 12.0947 25.3022 12.0947 25.3165C12.0805 25.3594 12.0662 25.4165 12.0519 25.4593C12.0519 25.4879 12.0376 25.5021 12.0376 25.5307C12.0234 25.5735 12.0091 25.6307 11.9948 25.6735C11.9948 25.702 11.9805 25.7163 11.9805 25.7449L11.9377 25.9591C11.9234 26.0305 11.9091 26.1019 11.9091 26.1733C11.9091 26.2018 11.9091 26.2161 11.8948 26.2446C11.8948 26.3018 11.8806 26.3446 11.8806 26.4017C11.8806 26.4303 11.8806 26.4588 11.8663 26.4874C11.8663 26.5445 11.852 26.5873 11.852 26.6445V27.1442C11.852 27.2013 11.852 27.2584 11.8663 27.3298V27.3727C11.8663 27.4441 11.8806 27.5155 11.8948 27.6011C11.8948 27.6297 11.8948 27.644 11.9091 27.6725C11.9091 27.7297 11.9234 27.7725 11.9377 27.8296C11.9377 27.8582 11.952 27.8867 11.952 27.9153C11.9662 27.9581 11.9662 28.0152 11.9805 28.0581C11.9805 28.0866 11.9948 28.1152 11.9948 28.1437C12.0091 28.1866 12.0233 28.2294 12.0233 28.2865C12.0376 28.3151 12.0376 28.3436 12.0519 28.3865C12.0662 28.4293 12.0805 28.4864 12.0947 28.5293C12.109 28.5578 12.109 28.5864 12.1233 28.6149C12.1376 28.6578 12.1519 28.7149 12.1661 28.7577C12.1804 28.7863 12.1804 28.8148 12.1947 28.8434C12.209 28.9005 12.2375 28.9576 12.2518 29.0005C12.2661 29.029 12.2661 29.0433 12.2804 29.0719L12.4946 29.5431C12.5088 29.5716 12.5231 29.5859 12.5374 29.6145L12.6231 29.7858C12.6373 29.8144 12.6516 29.8429 12.6802 29.8715C12.7087 29.9143 12.7373 29.9714 12.7659 30.0143C12.7801 30.0428 12.8087 30.0714 12.823 30.0999C12.8515 30.1428 12.8801 30.1999 12.9229 30.2427C12.9515 30.2713 12.9658 30.2999 12.9943 30.3427C13.0229 30.3855 13.0657 30.4426 13.0943 30.4855C13.1228 30.514 13.1371 30.5426 13.1657 30.5854C13.2085 30.6283 13.2371 30.6854 13.2799 30.7282C13.3085 30.7568 13.3227 30.7853 13.3513 30.8139C13.3941 30.871 13.437 30.9138 13.4941 30.971L13.5655 31.0424C13.6369 31.1137 13.7083 31.1994 13.7797 31.2708C13.7797 31.2708 13.7368 31.2137 13.6797 31.0995C13.6654 31.0852 13.6511 31.0566 13.6511 31.0281L13.6083 30.9424C13.594 30.9138 13.5798 30.8853 13.5655 30.8425C13.4512 30.5854 13.3513 30.2142 13.3656 29.8144L13.4941 29.9857C13.5369 30.0857 13.6083 30.2142 13.6797 30.357C13.7083 30.3998 13.7368 30.4569 13.7511 30.4998C13.8653 30.6997 13.9796 30.9281 14.1223 31.1423C14.2937 31.4136 14.465 31.6706 14.6507 31.9134C14.6507 31.9134 14.4365 31.4564 14.3651 31.1566C14.3508 31.0709 14.3365 30.9995 14.3508 30.9567C14.3651 30.971 14.3794 30.9995 14.4079 31.0138C14.4222 31.0281 14.4365 31.0566 14.465 31.0709C14.4936 31.1138 14.5364 31.1709 14.5936 31.2423L14.6221 31.2708C14.6507 31.2994 14.6649 31.3422 14.6935 31.3708C14.7221 31.4136 14.7506 31.4564 14.7935 31.4993C15.0933 31.8848 15.5074 32.3989 15.793 32.6701C15.8929 32.7558 15.9786 32.8272 16.0357 32.8558L15.6216 32.1133C16.564 32.8843 20.4765 33.8696 24.3175 32.7701C24.7887 32.6416 25.2456 32.4702 25.7025 32.2703C25.9738 32.1561 26.2451 32.0133 26.5164 31.8705L26.5593 31.842C26.7449 31.742 26.9305 31.6278 27.1161 31.5136C27.2589 31.4279 27.4017 31.3279 27.5302 31.2423C27.7587 31.0852 27.9872 30.9138 28.2156 30.7282C28.2299 30.7139 28.2442 30.6997 28.2585 30.6997C28.4726 30.514 28.6868 30.3141 28.8724 30.1142C29.1295 29.8429 29.3579 29.5716 29.5578 29.3003L29.5721 29.2861C29.6292 29.2147 29.6721 29.1575 29.7149 29.0861L29.7292 29.0719C29.7435 29.0433 29.7577 29.029 29.772 29.0005C29.8434 28.9005 29.9005 28.8148 29.9719 28.7149C29.9862 28.6863 30.0005 28.6721 30.0148 28.6435C30.0433 28.5864 30.0719 28.5435 30.1147 28.4864C30.1433 28.4436 30.1575 28.415 30.1861 28.3722C30.2147 28.3294 30.2432 28.2865 30.2575 28.2437C30.3003 28.1723 30.3432 28.0866 30.386 28.0152L30.4288 27.9296L30.5145 27.7582L30.5574 27.6725L30.5716 27.644C30.6002 27.5726 30.643 27.5012 30.6716 27.4298V27.4155C30.8001 27.3013 30.8858 27.1871 30.9714 27.0871C30.9857 27.0728 31 27.0585 31 27.0443C31.0857 26.773 31.1428 26.5588 31.1428 26.3589ZM8.16805 23.5888C8.16805 23.5745 8.16805 23.5602 8.15377 23.5317C8.11093 23.2889 8.0681 23.0319 8.05382 22.7749V22.7178C8.01098 22.732 7.96814 22.7892 7.91103 22.8605C7.89675 22.8891 7.86819 22.9177 7.85391 22.9605C7.7254 23.2032 7.61117 23.5459 7.61117 23.5459C7.62545 23.4317 7.63973 23.3175 7.63973 23.2032V23.1604C7.65401 23.0462 7.66829 22.9177 7.68257 22.8034V22.7606C7.69684 22.6178 7.7254 22.4893 7.75396 22.3608C7.75396 22.3465 7.75396 22.3322 7.76824 22.3037V22.2894C7.76824 22.2751 7.76824 22.2608 7.78252 22.2466C7.78252 22.218 7.7968 22.2037 7.7968 22.1752C7.81108 22.0752 7.83963 21.9753 7.85391 21.8753C7.86819 21.7896 7.88247 21.704 7.89675 21.6326V21.604C7.89675 21.5897 7.89675 21.5754 7.91103 21.5754V21.5469C7.91103 21.5326 7.92531 21.5041 7.92531 21.4898C7.92531 21.4755 7.92531 21.4612 7.93959 21.4469C7.93959 21.4184 7.95386 21.3898 7.95386 21.3755C7.95386 21.3613 7.96814 21.3327 7.96814 21.3184C7.96814 21.2899 7.98242 21.2613 7.98242 21.247C7.98242 21.2328 7.98242 21.2185 7.9967 21.2042C7.9967 21.1899 7.9967 21.1756 8.01098 21.1756C8.01098 21.1471 8.02526 21.1328 8.02526 21.1185V21.0757L7.9967 21.1042C7.96814 21.1185 7.95386 21.1471 7.92531 21.1614L7.89675 21.1899C7.86819 21.2185 7.83963 21.247 7.82535 21.2756L7.81108 21.2899L7.7254 21.4184L7.71112 21.4327C7.71112 21.4469 7.69685 21.4469 7.69685 21.4612L7.65401 21.5469V21.5754C7.63973 21.6183 7.61117 21.6611 7.59689 21.704C7.55406 21.8182 7.51122 21.9324 7.48266 22.0324C7.46838 22.0609 7.46838 22.1038 7.4541 22.118C7.43982 22.1752 7.42555 22.2323 7.42555 22.2466C7.42555 22.2037 7.42555 22.1752 7.43982 22.1323C7.43982 22.0609 7.4541 21.9753 7.4541 21.9039C7.4541 21.8467 7.46838 21.7754 7.48266 21.7182C7.48266 21.704 7.48266 21.6754 7.49694 21.6611C7.49694 21.6326 7.51122 21.604 7.51122 21.5754C7.51122 21.5469 7.5255 21.5183 7.5255 21.4898V21.4469C7.5255 21.4184 7.53978 21.3755 7.53978 21.347V21.2756V21.247C7.53978 21.2328 7.53978 21.2185 7.55406 21.2042C7.56833 21.1614 7.58261 21.1042 7.58261 21.0614V21.0471C7.59689 21.0186 7.59689 20.9757 7.61117 20.9472V20.9329C7.62545 20.8615 7.65401 20.7901 7.66829 20.7187V20.6902C7.66829 20.6759 7.66829 20.6616 7.68257 20.6473C7.71112 20.5331 7.75396 20.4189 7.78252 20.3189V20.3046C7.81108 20.219 7.85391 20.119 7.88247 20.0333V20.019C7.89675 19.9762 7.91103 19.9477 7.92531 19.9048C7.95386 19.8477 7.96814 19.7906 7.9967 19.7335C7.9967 19.7192 8.01098 19.6906 8.03954 19.6335C8.05382 19.6192 8.05382 19.5907 8.0681 19.5764C8.08237 19.5478 8.09665 19.5193 8.11093 19.4764L8.12521 19.4479L8.36795 19.0052C8.38223 18.991 8.38223 18.9624 8.39651 18.9481V18.9339L8.41079 18.9053C8.43935 18.8625 8.46791 18.8053 8.49646 18.7625C8.5393 18.6911 8.56786 18.6197 8.61069 18.5626C8.68209 18.4341 8.7392 18.3199 8.78204 18.2627C8.79632 18.2199 8.8106 18.2056 8.82488 18.1913C8.8106 18.1913 8.7392 18.1342 8.62497 18.0628C8.48218 17.9772 8.28228 17.8629 8.03954 17.7487C7.95386 17.7059 7.88247 17.6773 7.7968 17.6345C7.69684 17.5916 7.58261 17.5488 7.46838 17.506C7.43982 17.4917 7.41127 17.4917 7.38271 17.4774C7.28276 17.4488 7.19708 17.4203 7.09713 17.3917C7.02574 17.3775 6.95434 17.3632 6.89723 17.3489C6.84011 17.3346 6.78299 17.3346 6.72588 17.3203C6.69732 17.3203 6.66876 17.3203 6.64021 17.3061C6.61165 17.3061 6.58309 17.3061 6.55453 17.2918C6.48314 17.2918 6.39746 17.2775 6.32607 17.2775H6.21184C6.04049 17.2775 5.88342 17.2918 5.72636 17.3203H5.6978C5.41222 17.3632 5.14092 17.4346 4.86962 17.5345C4.78395 17.5631 4.69828 17.6059 4.59832 17.6487C4.56977 17.663 4.55549 17.6773 4.52693 17.6773L4.44126 17.7201C4.18424 17.8487 3.94149 18.02 3.71303 18.2056H3.69875C3.49885 18.3627 3.3275 18.5483 3.17043 18.7339L3.04192 18.9053C2.98481 18.9767 2.94197 19.0481 2.89914 19.1195C2.81346 19.248 2.72779 19.3908 2.65639 19.5336C2.62784 19.5907 2.59928 19.6335 2.585 19.6906C2.585 19.7049 2.57072 19.7049 2.57072 19.7192C2.42793 20.0619 2.3137 20.4189 2.27086 20.8044C2.25659 20.8758 2.25659 20.9472 2.24231 21.0328V21.0614C2.24231 21.1185 2.22803 21.1756 2.22803 21.247V21.5041C2.22803 21.5612 2.22803 21.6183 2.24231 21.6754V21.7468C2.24231 21.7896 2.25659 21.8325 2.25659 21.8753V21.8896C2.25659 21.9181 2.25659 21.9324 2.27086 21.961C2.27086 22.0038 2.28514 22.0467 2.28514 22.0752C2.28514 22.1038 2.29942 22.1323 2.29942 22.1609C2.3137 22.2037 2.3137 22.2323 2.32798 22.2751C2.32798 22.3037 2.34226 22.3322 2.35654 22.3608V22.3751L2.37082 22.4036V22.4322L2.3851 22.4607C2.39937 22.4893 2.39937 22.5179 2.41365 22.5464C2.42793 22.575 2.42793 22.6178 2.44221 22.6464C2.45649 22.6749 2.47077 22.7035 2.47077 22.7463L2.48505 22.7749C2.49933 22.8034 2.49933 22.8177 2.51361 22.8463C2.52788 22.8748 2.54216 22.9034 2.55644 22.9462L2.59928 23.0319C2.61356 23.0462 2.61356 23.0605 2.62784 23.0747C2.64212 23.089 2.64212 23.1033 2.65639 23.1176L2.69923 23.2032C2.71351 23.2318 2.72779 23.2746 2.75635 23.3032C2.77063 23.3317 2.7849 23.3603 2.79918 23.3746C2.81346 23.4031 2.84202 23.446 2.8563 23.4745C2.87058 23.5031 2.88486 23.5174 2.89914 23.5459C2.91341 23.5745 2.94197 23.6173 2.97053 23.6459C2.98481 23.6744 2.99909 23.6887 3.01337 23.703C3.04192 23.7316 3.0562 23.7744 3.08476 23.803C3.09904 23.8172 3.11332 23.8458 3.1276 23.8601C3.15616 23.8886 3.18471 23.9315 3.21327 23.96C3.22755 23.9743 3.24183 23.9886 3.25611 24.0171C3.28467 24.0457 3.31322 24.0885 3.34178 24.1171L3.38462 24.1599C3.41318 24.1885 3.44173 24.2313 3.48457 24.2599L3.52741 24.3027L3.62736 24.4027C3.64164 24.4169 3.65592 24.4312 3.6702 24.4312C3.69875 24.4598 3.74159 24.4883 3.78443 24.5312C3.79871 24.5455 3.81298 24.5455 3.82726 24.5597C3.8701 24.5883 3.89866 24.6169 3.94149 24.6454C3.95577 24.6597 3.97005 24.6597 3.97005 24.674L4.09856 24.7596L4.12712 24.7739L4.25563 24.8596L4.28419 24.8739C4.32703 24.9024 4.38414 24.931 4.42698 24.9595L4.45554 24.9738C4.49837 25.0024 4.55549 25.0309 4.59832 25.0452L4.62688 25.0595C4.684 25.0881 4.72683 25.1023 4.78395 25.1309L4.79823 25.1452C4.85534 25.1737 4.91246 25.188 4.9553 25.2166H4.96958C5.02669 25.2308 5.08381 25.2594 5.14092 25.2737H5.1552C5.18376 25.288 5.21232 25.288 5.24087 25.3022C5.26943 25.3165 5.29799 25.3165 5.34083 25.3308H5.35511C5.41222 25.3451 5.48362 25.3594 5.54073 25.3736C5.59785 25.3879 5.66924 25.4022 5.72636 25.4022C5.92626 25.4307 6.12617 25.445 6.32607 25.4593H6.46886C6.54025 25.4593 6.59737 25.4593 6.66876 25.445C6.75444 25.4307 6.85439 25.4307 6.95434 25.4165C7.04002 25.4022 7.12569 25.3879 7.19708 25.3736C7.32559 25.3451 7.4541 25.3165 7.56833 25.2737C7.93959 25.1737 8.25372 25.0309 8.45363 24.8739C8.45363 24.8739 8.32512 24.3027 8.22516 23.7316C8.19661 23.703 8.18233 23.6459 8.16805 23.5888Z" fill="#90694C"/>
<path d="M17.335 2.37054L17.2922 1.79938L17.5778 1.17111L17.692 1.14255C17.5064 1.05688 17.2779 0.999761 17.0209 0.956924C16.5068 0.88553 15.85 0.956924 15.1075 1.14255C14.365 1.32818 13.5225 1.65659 12.6373 2.09924C10.8524 2.98453 8.88191 4.34102 6.96853 6.08305C6.29742 6.68276 5.68343 7.31103 5.11228 7.92503C4.5554 8.52474 4.05564 9.13873 3.59871 9.72417C2.67059 10.9379 1.97092 12.1087 1.51399 13.1654C1.21414 13.865 1.02851 14.5076 0.957118 15.0645C0.900002 15.4643 0.914281 15.8213 0.985676 16.1068C1.01423 16.2068 1.04279 16.2782 1.07135 16.3639C1.14274 16.5352 1.22842 16.678 1.34265 16.8065L2.49924 18.0202L2.62775 18.1487L2.64203 18.1344C2.67059 18.0916 2.71342 18.0488 2.75626 18.0202L2.77054 18.0059L2.81337 17.9631C2.84193 17.9203 2.88477 17.8917 2.91333 17.8489C2.94188 17.8203 2.95616 17.806 2.98472 17.7917C3.01328 17.7775 3.02756 17.7489 3.05612 17.7346L3.08467 17.7061C3.11323 17.6918 3.12751 17.6632 3.15607 17.649C3.18463 17.6204 3.22746 17.5918 3.25602 17.5633C3.2703 17.549 3.29886 17.5347 3.31314 17.5204H3.32741C3.37025 17.4919 3.39881 17.4633 3.44165 17.4348C3.4702 17.4205 3.48448 17.4062 3.51304 17.3777C3.55588 17.3491 3.58443 17.3205 3.62727 17.292C3.65583 17.2777 3.67011 17.2634 3.69867 17.2491C3.7415 17.2206 3.78434 17.192 3.82718 17.1778C3.85573 17.1635 3.87001 17.1492 3.89857 17.1349C3.94141 17.1064 3.98424 17.0921 4.02708 17.0635C4.05564 17.0492 4.06992 17.035 4.09848 17.0207L4.12703 17.0064C4.39833 16.2496 4.81242 15.4072 5.35502 14.5504C6.01185 13.4938 6.8543 12.38 7.85382 11.2663C8.4821 10.5666 9.16748 9.86696 9.90999 9.19585C10.8667 8.32484 11.8519 7.5395 12.8229 6.85411C13.4797 6.39718 14.1223 5.9831 14.7505 5.62612C14.8076 5.59757 14.8648 5.55473 14.9362 5.52617C15.1075 5.42622 15.2646 5.34055 15.4359 5.25487C15.7929 5.06925 16.1499 4.8979 16.4926 4.75511L16.3212 4.55521L16.2927 4.52665L16.0785 4.28391L14.8933 2.85602L14.9076 1.82794L14.8933 1.81366L15.7358 1.55664L17.335 2.37054Z" fill="#2F83C1"/>
<path d="M31.1429 26.3588C31.1429 26.3588 31.1714 26.1446 31.0572 25.9447C31.0572 25.9304 31.0429 25.9162 31.0429 25.9162L31.0287 25.9019L30.9858 25.8591C30.9573 25.8305 30.9287 25.8019 30.8859 25.7734C30.8716 25.7591 30.843 25.7448 30.8145 25.7305C30.7431 25.702 30.6717 25.6734 30.5717 25.6592C30.5003 25.6449 30.4289 25.6449 30.3433 25.6449H30.229V25.6734C30.229 25.6877 30.2433 25.702 30.2433 25.7305C30.2433 25.7448 30.2433 25.7591 30.2576 25.7591C30.2719 25.8019 30.2861 25.8733 30.3004 25.9305C30.3004 25.9305 30.3004 25.9447 30.2861 25.9733V25.9876C30.2433 26.0875 30.1291 26.316 29.8721 26.6016C29.8292 26.6587 29.7864 26.7015 29.7293 26.7586C29.0153 27.5011 27.4732 28.5435 24.2176 29.1289C23.1181 29.286 22.0901 29.3003 21.2333 29.186C19.9482 29.029 18.9915 28.6149 18.5346 28.058C18.4918 28.0152 18.4632 27.9581 18.4204 27.9152C18.3918 27.8724 18.3775 27.8438 18.349 27.801C18.3347 27.7867 18.3347 27.7724 18.3204 27.7581C18.1348 27.4155 18.0491 27.0442 18.0491 26.6872C18.0491 26.2446 18.1919 25.8305 18.4204 25.5164C18.606 25.2593 18.8488 25.0594 19.1486 24.9738C19.2914 24.9309 19.4485 24.9024 19.6055 24.9166C19.6341 24.9166 19.6769 24.9166 19.734 24.9309C19.834 24.9452 19.9911 24.9595 20.1767 24.988C20.191 24.988 20.2195 24.988 20.2338 25.0023C20.8478 25.0737 21.8188 25.1737 22.9896 25.1023C25.1315 24.9738 27.9444 24.3027 30.5003 21.9895V21.9752C30.5146 21.7753 30.4861 21.4326 30.2433 21.1613C30.2005 21.1185 30.1576 21.0756 30.1005 21.0328C30.072 21.0042 30.0291 20.99 30.0006 20.9614C29.9577 20.9471 29.9292 20.9186 29.9006 20.9043L29.7721 20.8186V20.8043C29.7578 20.7758 29.7436 20.7472 29.715 20.7187C29.0582 19.7191 28.1443 19.1337 27.7731 18.8624C27.6017 18.7339 27.4875 18.6768 27.4875 18.6768C26.7021 18.1913 26.5879 18.0342 26.6593 16.7348C26.6879 16.2636 26.7307 15.6496 26.7878 14.8072C26.7878 14.693 26.8021 14.593 26.8021 14.4931V14.4217V14.079C26.8021 14.0076 26.7878 13.9362 26.7878 13.8791C26.7878 13.8505 26.7878 13.8219 26.7735 13.7934C26.7593 13.722 26.7593 13.6506 26.745 13.5792C26.745 13.5506 26.7307 13.5078 26.7307 13.4793C26.7307 13.4364 26.7164 13.4079 26.7021 13.365C26.6879 13.3365 26.6879 13.2936 26.6736 13.2651C26.6593 13.2222 26.645 13.1794 26.645 13.1366C26.645 13.1223 26.6308 13.108 26.6308 13.0937C26.6308 13.0794 26.6165 13.0652 26.6165 13.0509V13.0366L26.6022 12.9938C26.5879 12.9652 26.5736 12.9367 26.5736 12.9081V12.8938L26.5594 12.8653L26.5451 12.8367C26.5165 12.7796 26.5022 12.7225 26.4737 12.6796L26.4594 12.6368C26.4308 12.594 26.4023 12.5368 26.3737 12.494L26.3595 12.4797L26.3452 12.4655C26.3166 12.4369 26.3023 12.4083 26.2738 12.3798L26.2452 12.3369C26.2167 12.2941 26.1881 12.2655 26.1595 12.237L26.0453 12.1228C26.0025 12.0942 25.9596 12.0656 25.9168 12.0514C25.9025 12.0371 25.8882 12.0371 25.874 12.0371L25.7883 11.9942C25.774 11.9942 25.7597 11.98 25.7455 11.98C25.7169 11.9657 25.6883 11.9657 25.6741 11.9514C25.6598 11.9514 25.6455 11.9371 25.6169 11.9371C25.5884 11.9371 25.5741 11.9229 25.5456 11.9229H25.2314C25.2171 11.9229 25.2029 11.9229 25.1886 11.9371C25.1743 11.9371 25.16 11.9371 25.1457 11.9514C25.1172 11.9514 25.0886 11.9657 25.0458 11.98H25.0172C24.9316 12.0085 24.8602 12.0371 24.7745 12.0656L24.7459 12.0799C24.7174 12.0942 24.6888 12.1085 24.646 12.1228L24.6031 12.137L24.5175 12.1799L24.4746 12.2084L24.389 12.2513L24.3461 12.2798C24.3176 12.2941 24.289 12.3227 24.2605 12.3369L24.2319 12.3512C24.2033 12.3798 24.1605 12.3941 24.1319 12.4226L24.1177 12.4369C24.0748 12.4654 24.0463 12.494 24.0034 12.5083C23.932 12.5511 23.8606 12.6082 23.7893 12.6511C23.7321 12.6939 23.675 12.7367 23.6036 12.7796L23.5751 12.7939C23.518 12.8367 23.4466 12.8795 23.3894 12.9081L23.3609 12.9224C23.3038 12.9652 23.2324 12.9938 23.1753 13.0366L23.1467 13.0509C23.0896 13.0937 23.0182 13.1223 22.9468 13.1508L22.9182 13.1651C22.8468 13.1937 22.7897 13.2222 22.7183 13.2508L22.6898 13.2651C22.6184 13.2936 22.547 13.3079 22.4756 13.3365H22.4613C22.3899 13.3507 22.3042 13.365 22.2328 13.3793C22.1043 13.3936 21.9616 13.4079 21.833 13.4079C21.6189 13.4079 21.4047 13.3936 21.1762 13.365L20.962 13.3222C20.9335 13.3222 20.9049 13.3079 20.8906 13.3079C20.705 13.2651 20.5051 13.2222 20.3195 13.1794C20.2338 13.1651 20.1624 13.1366 20.0767 13.1223C19.9482 13.0937 19.8197 13.0652 19.6769 13.0366C19.6484 13.0366 19.6198 13.0223 19.6055 13.0223C19.5913 13.0223 19.5627 13.008 19.5484 13.008C19.5199 13.008 19.4913 12.9938 19.4627 12.9938C19.4342 12.9938 19.4056 12.9795 19.3771 12.9795H19.3485C19.32 12.9795 19.2914 12.9652 19.2771 12.9652C19.22 12.9509 19.1629 12.9367 19.0915 12.9367C19.0772 12.9367 19.0487 12.9367 19.0344 12.9224C18.9915 12.9224 18.9487 12.9081 18.9059 12.9081C18.8773 12.9081 18.863 12.9081 18.8345 12.8938C18.7916 12.8938 18.7631 12.8795 18.7202 12.8795H18.0634C17.992 12.8795 17.9349 12.8938 17.8635 12.8938H17.8064C17.7636 12.8938 17.7207 12.9081 17.6779 12.9081H17.6636C17.635 12.9081 17.6208 12.9224 17.5922 12.9224C17.5494 12.9367 17.5065 12.9367 17.4637 12.9509C17.4351 12.9509 17.4066 12.9652 17.3923 12.9652C17.3495 12.9795 17.3066 12.9938 17.2638 12.9938C17.2352 12.9938 17.221 13.008 17.1924 13.0223C17.1496 13.0366 17.0924 13.0509 17.0496 13.0652C17.0211 13.0794 17.0068 13.0794 16.9925 13.0937C16.9211 13.1223 16.8497 13.1508 16.7926 13.1794C16.25 13.4935 15.7788 13.9219 15.4218 14.4074C15.2933 14.5787 15.1791 14.7501 15.0791 14.9214C14.9649 15.107 14.8792 15.307 14.7935 15.5069C14.765 15.564 14.7507 15.6211 14.7222 15.6782C14.6936 15.7782 14.6508 15.8781 14.6222 15.9781C14.6222 15.9923 14.6222 16.0066 14.6079 16.0066C14.5794 16.1208 14.5508 16.2351 14.5222 16.3636C14.4937 16.4921 14.4794 16.6063 14.4651 16.7348C14.4509 16.8062 14.4509 16.8633 14.4509 16.9347C14.4366 17.1204 14.4366 17.2917 14.4509 17.4773V17.5202C14.4509 17.563 14.4509 17.6059 14.4651 17.663C14.4794 17.7915 14.4937 17.92 14.5222 18.0485C14.5365 18.0913 14.5508 18.1342 14.5508 18.1913C14.5651 18.2341 14.5651 18.277 14.5794 18.3198C14.665 18.6482 14.7935 18.9481 14.9506 19.2051C15.536 20.2189 16.507 20.8329 17.221 21.1613C17.4923 21.2755 17.7778 21.3898 18.0777 21.4897L18.0491 21.5183C17.992 21.5325 17.9349 21.5468 17.8635 21.5611C17.7636 21.5897 17.635 21.6325 17.5065 21.6753C17.3637 21.7182 17.1924 21.7896 17.0211 21.861C16.5641 22.0466 16.0501 22.3179 15.5932 22.6891C15.536 22.732 15.4789 22.7891 15.4218 22.8319C15.3219 22.9176 15.2362 23.0033 15.1505 23.1032L15.122 23.1318L15.0791 23.1746C15.0506 23.2175 15.0077 23.246 14.9792 23.2889L14.9363 23.3317C14.8935 23.3888 14.8507 23.4459 14.8221 23.503C14.7793 23.5602 14.7507 23.6173 14.7079 23.6744C14.4366 24.1456 14.2795 24.7167 14.3223 25.4021V25.3736C14.3223 25.3593 14.3223 25.345 14.3366 25.3307V25.3165C14.3366 25.3022 14.3509 25.2879 14.3509 25.2593V25.2451C14.3509 25.2308 14.3652 25.2022 14.3652 25.1737C14.3652 25.1451 14.3795 25.1308 14.3937 25.1023V25.088C14.408 25.0594 14.408 25.0309 14.4223 25.0023V24.988C14.4366 24.9595 14.4366 24.9309 14.4509 24.9024V24.8881C14.4651 24.8595 14.4794 24.831 14.4937 24.7881L14.508 24.7739C14.5222 24.7453 14.5365 24.7025 14.5651 24.6739C14.5936 24.6168 14.6222 24.574 14.6508 24.5168C14.665 24.5026 14.6793 24.474 14.6936 24.4597L14.7079 24.4454L14.7935 24.3169C14.8221 24.2884 14.8507 24.2455 14.8792 24.217L14.9078 24.1884C14.9363 24.1599 14.9506 24.1313 14.9792 24.117L15.0077 24.0885C15.0363 24.0599 15.0791 24.0314 15.1077 23.9885C15.1077 23.9885 14.4937 25.3879 14.765 26.4873V26.473V26.4445V26.4017V26.3445V26.2731C14.765 26.2446 14.765 26.216 14.7793 26.1875C14.7793 26.1589 14.7793 26.1304 14.7935 26.1018V26.0875C14.7935 26.059 14.8078 26.0161 14.8078 25.9876V25.959C14.8221 25.9162 14.8221 25.8876 14.8364 25.8448V25.8305C14.8507 25.7877 14.8649 25.7448 14.8649 25.7163C14.8649 25.702 14.8792 25.6877 14.8792 25.6734L14.8935 25.6449C14.9078 25.6163 14.9221 25.5735 14.9363 25.5449C14.9506 25.5021 14.9792 25.4592 15.0077 25.4164C15.0077 25.4021 15.022 25.3879 15.022 25.3879L15.1077 25.2593C15.1077 25.2593 15.0791 25.602 15.0791 26.0161C15.0791 26.0875 15.0791 26.1446 15.0934 26.216C15.0934 26.2589 15.0934 26.3017 15.1077 26.3445C15.0934 26.6301 15.0934 26.9157 15.122 27.2156C15.1648 27.7153 15.2933 28.2579 15.5075 28.8148C15.5075 28.8148 15.3076 28.1722 15.5932 27.5297L15.6788 27.701C15.7074 27.8867 15.736 28.158 15.7931 28.4578C15.8502 28.9576 16.0786 30.4569 17.1067 31.4992C17.1067 31.4992 16.7212 30.9995 16.7783 30.3569C16.8211 30.4426 16.864 30.514 16.8925 30.5854C17.0639 30.9138 17.4066 31.5135 17.7921 31.9419C17.7921 31.9419 17.4923 31.3564 17.5637 31.2279C17.5637 31.2279 18.5632 32.4702 18.8773 32.5844L18.4632 31.899L18.4489 31.8848C19.8911 32.9414 21.8902 33.3269 24.3461 32.6415C24.7745 32.5273 25.2029 32.3702 25.6598 32.1846C25.9311 32.0704 26.2024 31.9276 26.4737 31.7848L26.5165 31.7562C26.7021 31.6563 26.8878 31.5421 27.0734 31.4278C27.2162 31.3422 27.359 31.2422 27.4875 31.1565C27.7159 30.9995 27.9444 30.8281 28.1729 30.6425C28.1872 30.6282 28.2014 30.6139 28.2157 30.6139C28.4299 30.4283 28.6441 30.2284 28.8297 30.0285C29.0867 29.7572 29.3152 29.4859 29.5151 29.2146L29.5294 29.2003C29.5865 29.1289 29.6293 29.0718 29.6722 29.0004L29.6864 28.9861C29.7007 28.9576 29.715 28.9433 29.7293 28.9147C29.8007 28.8148 29.8578 28.7291 29.9292 28.6292C29.9435 28.6006 29.9577 28.5863 29.972 28.5578C30.0006 28.5007 30.0291 28.4578 30.072 28.4007C30.1005 28.3579 30.1148 28.3293 30.1434 28.2865C30.1719 28.2436 30.2005 28.2008 30.2148 28.158C30.2576 28.0866 30.3004 28.0009 30.3433 27.9295L30.3861 27.8438L30.4718 27.6725L30.5146 27.5868L30.5289 27.5582C30.5574 27.4868 30.6003 27.4155 30.6288 27.3441V27.3298C30.7574 27.2156 30.843 27.1013 30.9287 27.0014C30.943 26.9871 30.9573 26.9728 30.9573 26.9585C31.0858 26.7729 31.1429 26.5587 31.1429 26.3588ZM8.05391 22.7177C8.01107 22.732 7.96823 22.7891 7.91112 22.8605C7.89684 22.889 7.86828 22.9176 7.854 22.9604C7.72549 23.2032 7.61126 23.5459 7.61126 23.5459C7.62554 23.4316 7.63982 23.3174 7.63982 23.2032V23.1603C7.6541 23.0461 7.66838 22.9176 7.68266 22.8034V22.7605C7.69693 22.6177 7.72549 22.4892 7.75405 22.3607C7.75405 22.3464 7.75405 22.3322 7.76833 22.3036V22.2893C7.76833 22.2751 7.76833 22.2608 7.78261 22.2465C7.78261 22.2179 7.79689 22.2037 7.79689 22.1751C7.81117 22.0751 7.83972 21.9752 7.854 21.8752C7.86828 21.7896 7.88256 21.7039 7.89684 21.6325V21.6039C7.89684 21.5897 7.89684 21.5754 7.91112 21.5754V21.5468C7.91112 21.5325 7.9254 21.504 7.9254 21.4897C7.9254 21.4754 7.9254 21.4612 7.93968 21.4469C7.93968 21.4183 7.95395 21.3898 7.95395 21.3755C7.95395 21.3612 7.96823 21.3326 7.96823 21.3184C7.96823 21.2898 7.98251 21.2613 7.98251 21.247C7.98251 21.2327 7.98251 21.2184 7.99679 21.2041C7.99679 21.1899 7.99679 21.1756 8.01107 21.1756C8.01107 21.147 8.02535 21.1327 8.02535 21.1185V21.0756L7.99679 21.1042C7.96823 21.1185 7.95395 21.147 7.9254 21.1613L7.89684 21.1899C7.86828 21.2184 7.83972 21.247 7.82544 21.2755L7.81117 21.2898L7.72549 21.4183L7.71121 21.4326C7.71121 21.4469 7.69693 21.4469 7.69693 21.4612L7.6541 21.5468V21.5754C7.63982 21.6182 7.61126 21.6611 7.59698 21.7039C7.55415 21.8181 7.51131 21.9324 7.48275 22.0323C7.46847 22.0609 7.46847 22.1037 7.45419 22.118C7.43991 22.1751 7.42564 22.2322 7.42564 22.2465C7.42564 22.2037 7.42564 22.1751 7.43991 22.1323C7.43991 22.0609 7.45419 21.9752 7.45419 21.9038C7.45419 21.8467 7.46847 21.7753 7.48275 21.7182C7.48275 21.7039 7.48275 21.6753 7.49703 21.6611C7.49703 21.6325 7.51131 21.6039 7.51131 21.5754C7.51131 21.5468 7.52559 21.5183 7.52559 21.4897V21.4469C7.52559 21.4183 7.53987 21.3755 7.53987 21.3469V21.2755V21.247C7.53987 21.2327 7.53987 21.2184 7.55415 21.2041C7.56842 21.1613 7.5827 21.1042 7.5827 21.0613V21.0471C7.59698 21.0185 7.59698 20.9757 7.61126 20.9471V20.9328C7.62554 20.8614 7.6541 20.79 7.66838 20.7187V20.6901C7.66838 20.6758 7.66838 20.6615 7.68266 20.6473C7.71121 20.533 7.75405 20.4188 7.78261 20.3188V20.3046C7.81117 20.2189 7.854 20.1189 7.88256 20.0333V20.019C7.89684 19.9761 7.91112 19.9476 7.9254 19.9048C7.95395 19.8476 7.96823 19.7905 7.99679 19.7334C7.99679 19.7191 8.01107 19.6906 8.03963 19.6335C8.05391 19.6192 8.05391 19.5906 8.06819 19.5763C8.08246 19.5478 8.09674 19.5192 8.11102 19.4764L8.1253 19.4478C8.11102 19.4336 8.08246 19.4336 8.06819 19.4193H8.05391L8.02535 19.405C7.89684 19.3479 7.75405 19.2908 7.61126 19.2479H7.5827C7.48275 19.2194 7.39708 19.2051 7.29713 19.1908C7.24001 19.1908 7.18289 19.1765 7.12578 19.1765H6.98299C6.9116 19.1765 6.8402 19.1908 6.76881 19.1908C6.74025 19.1908 6.72597 19.1908 6.69741 19.2051C6.66885 19.2051 6.62602 19.2194 6.59746 19.2194C6.58318 19.2194 6.5689 19.2194 6.55462 19.2336C6.52606 19.2336 6.51179 19.2479 6.48323 19.2479C6.44039 19.2622 6.38328 19.2765 6.34044 19.2908C6.32616 19.2908 6.2976 19.305 6.28332 19.305C6.22621 19.3336 6.15481 19.3479 6.0977 19.3764C6.06914 19.3907 6.05486 19.405 6.0263 19.405L5.94063 19.4478L5.91207 19.4621C5.88351 19.4764 5.85496 19.4907 5.8264 19.5192C5.79784 19.5335 5.76928 19.5478 5.74073 19.5763C5.71217 19.5906 5.68361 19.6192 5.65505 19.6335C5.64077 19.6477 5.61222 19.662 5.59794 19.6763C5.5551 19.7191 5.49798 19.762 5.45515 19.8048L5.38375 19.8762C5.34092 19.919 5.31236 19.9619 5.26952 20.0047L5.25524 20.019C5.24096 20.0475 5.21241 20.0618 5.19813 20.0904L5.15529 20.1332C5.0839 20.2332 5.0125 20.3474 4.95539 20.4616C4.94111 20.4759 4.94111 20.4902 4.92683 20.5045C4.89827 20.5616 4.88399 20.6187 4.85543 20.6758C4.84116 20.7044 4.84115 20.7187 4.82688 20.7472C4.8126 20.8043 4.78404 20.8614 4.76976 20.9328V20.99C4.75548 21.0328 4.75548 21.0756 4.7412 21.1185C4.7412 21.147 4.7412 21.1613 4.72692 21.1899C4.72692 21.2184 4.72692 21.2327 4.71265 21.2612V21.3184C4.71265 21.3898 4.69837 21.4612 4.71265 21.5326C4.71265 21.5897 4.71264 21.6468 4.72692 21.7039V21.7325C4.72692 21.761 4.7412 21.7896 4.7412 21.8181C4.75548 21.9324 4.78404 22.0323 4.8126 22.1465C4.84116 22.2322 4.86971 22.3036 4.89827 22.375C4.95539 22.5178 5.02678 22.6463 5.11245 22.7748C5.2838 23.0318 5.51226 23.2603 5.78356 23.4316C5.92635 23.5316 6.0977 23.603 6.26904 23.6601C6.42611 23.7172 6.59746 23.7601 6.78308 23.7743C6.82592 23.7743 6.86876 23.7886 6.89732 23.7886H7.08294C7.14006 23.7886 7.19717 23.7743 7.25429 23.7743C7.28285 23.7743 7.32568 23.7743 7.35424 23.7601C7.43991 23.7458 7.51131 23.7315 7.59698 23.7172H7.61126C7.63982 23.7029 7.66838 23.7029 7.71121 23.6887C7.81117 23.6601 7.91112 23.6173 7.99679 23.5744L8.01107 23.5602C8.03963 23.5459 8.06819 23.5316 8.08246 23.5316C8.03963 23.2889 7.99679 23.0318 7.98251 22.7748C8.05391 22.7463 8.05391 22.732 8.05391 22.7177Z" fill="#FCE9CD"/>
<path d="M30.2718 25.7736C30.2718 25.7593 30.2718 25.745 30.2575 25.745C30.2433 25.7165 30.2433 25.7022 30.2433 25.6879C30.1719 25.4595 30.0862 25.2881 30.0005 25.1596C29.9006 25.0025 29.8149 24.9169 29.8149 24.9169L29.8577 24.7455C29.872 24.6741 29.8863 24.6027 29.8863 24.5313C29.9434 24.0173 29.8149 23.6175 29.7007 23.389C29.6864 23.3462 29.6721 23.3176 29.6578 23.2891C29.5721 23.3462 29.5007 23.4033 29.4151 23.4604C27.873 24.5028 26.1452 25.1739 24.2747 25.4595C22.9896 25.6594 21.6331 25.6736 20.2195 25.5023L20.248 25.5166C20.248 25.5166 19.3913 25.6308 19.1628 26.4447L19.1771 26.459L19.1057 27.0016C19.1343 27.7441 19.4627 28.201 19.8482 28.4437C20.248 28.6008 20.7335 28.715 21.2761 28.7864C22.2042 28.9007 23.2894 28.8721 24.3746 28.7008C25.8311 28.5009 27.8872 27.7298 29.358 26.7303C29.6864 26.5018 30.0005 26.2591 30.2575 26.0163L30.2718 26.0021L30.2861 25.9878C30.2861 25.8878 30.2718 25.8307 30.2718 25.7736Z" fill="white"/>
<path d="M27.4873 18.7197C26.702 18.2342 26.5877 18.0772 26.6591 16.7778C26.6877 16.3066 26.7305 15.6926 26.7876 14.8501C26.7876 14.7359 26.8019 14.636 26.8019 14.536V14.4646V14.1219C26.8019 14.0505 26.7876 13.9791 26.7876 13.922C26.7876 13.8935 26.7876 13.8649 26.7734 13.8363C26.7591 13.7649 26.7591 13.6936 26.7448 13.6222C26.7448 13.5936 26.7305 13.5508 26.7305 13.5222C26.7305 13.4794 26.7162 13.4508 26.702 13.408C26.6877 13.3794 26.6877 13.3366 26.6734 13.308C26.5592 13.1367 26.4307 12.9939 26.2736 12.8654L26.245 12.8368L26.2165 12.8225H26.2022C26.1736 12.8083 26.1594 12.794 26.1308 12.7797C26.1023 12.7654 26.0737 12.7511 26.0594 12.7369C25.831 12.5941 25.5597 12.5084 25.2884 12.4656C25.1313 12.437 24.9742 12.437 24.8172 12.437C24.7458 12.437 24.6601 12.4513 24.5887 12.4513C24.3888 12.4798 24.1889 12.5227 23.9747 12.5798C23.9033 12.6226 23.8319 12.6798 23.7605 12.7226C23.7034 12.7654 23.6463 12.8083 23.5749 12.8511L23.5463 12.8654C23.4892 12.9082 23.4178 12.9511 23.3607 12.9796L23.3321 12.9939C23.275 13.0367 23.2036 13.0653 23.1465 13.1081L23.118 13.1224C23.0608 13.1652 22.9895 13.1938 22.9181 13.2224L22.8895 13.2366C22.8181 13.2652 22.761 13.2937 22.6896 13.3223L22.661 13.3366C22.5896 13.3651 22.5183 13.3794 22.4469 13.408H22.4326C22.3612 13.4223 22.2755 13.4365 22.2041 13.4508C22.0756 13.4651 21.9328 13.4794 21.8043 13.4794C21.5901 13.4794 21.3759 13.4651 21.1475 13.4365L20.9333 13.3937C20.9047 13.3937 20.8762 13.3794 20.8619 13.3794C20.6763 13.3366 20.4764 13.2937 20.2907 13.2509C20.2051 13.2366 20.1337 13.2081 20.048 13.1938C19.9195 13.1652 19.791 13.1367 19.6482 13.1081C19.6196 13.1081 19.5911 13.0938 19.5768 13.0938C19.4626 13.0938 19.3483 13.1081 19.2484 13.1224H19.2198C18.8914 13.1652 18.5773 13.2366 18.2489 13.3509C18.2346 13.3509 18.2203 13.3651 18.1917 13.3651C18.1346 13.3794 18.0918 13.408 18.0347 13.4223C17.9633 13.4508 17.9062 13.4794 17.8348 13.5079C17.3636 13.7078 16.9209 13.9934 16.4926 14.3504C16.3212 14.4932 16.1641 14.6502 16.0071 14.8073C15.7786 15.05 15.5787 15.3071 15.3931 15.5784C15.3788 15.5926 15.3788 15.6069 15.3645 15.6212C15.2646 15.764 15.1789 15.9211 15.1075 16.0639C15.0789 16.121 15.0504 16.1781 15.0218 16.2209V16.2352C14.9362 16.4208 14.8648 16.5922 14.8076 16.7778C14.8076 16.7921 14.8076 16.8064 14.7934 16.8064C14.7791 16.8349 14.7791 16.8635 14.7648 16.892C14.7363 16.9777 14.7077 17.0634 14.6934 17.149C14.6649 17.2347 14.6506 17.3204 14.6363 17.4203C14.6363 17.4346 14.622 17.4632 14.622 17.4775C14.6077 17.5346 14.6077 17.5917 14.5935 17.6345C14.5649 17.8344 14.5506 18.0343 14.5363 18.2342V18.377C14.622 18.7054 14.7505 19.0053 14.9076 19.2623C15.493 20.2761 16.464 20.8901 17.1779 21.2185C17.4492 21.3328 17.7348 21.447 18.0347 21.5469L18.049 21.5612L18.0632 21.5469C18.1061 21.5184 18.1346 21.4898 18.1775 21.4613C18.1917 21.447 18.206 21.447 18.2203 21.4327L18.3488 21.347C18.3631 21.3328 18.3774 21.3328 18.3917 21.3185L18.5202 21.2328C18.5344 21.2185 18.5487 21.2185 18.563 21.2043C18.6058 21.1757 18.6487 21.1471 18.7058 21.1186C18.7201 21.1043 18.7343 21.1043 18.7486 21.09C18.7915 21.0615 18.8486 21.0329 18.8914 21.0044C18.9057 20.9901 18.92 20.9901 18.9343 20.9758C18.9771 20.9472 19.0342 20.9187 19.077 20.8901C19.0913 20.8758 19.1199 20.8758 19.1342 20.8616C19.177 20.833 19.2341 20.8044 19.2769 20.7759C19.2912 20.7616 19.3198 20.7473 19.3341 20.7473C19.3769 20.7188 19.434 20.6902 19.4911 20.6617C19.5197 20.6474 19.534 20.6331 19.5625 20.6331C19.6196 20.6045 19.6625 20.576 19.7196 20.5617C19.7481 20.5474 19.7624 20.5331 19.791 20.5331C19.8481 20.5046 19.8909 20.4903 19.9481 20.4618L20.0337 20.4189C20.0908 20.3904 20.1337 20.3761 20.1908 20.3475C20.2193 20.3332 20.2479 20.319 20.2907 20.3047C20.3479 20.2904 20.3907 20.2618 20.4478 20.2476C20.4764 20.2333 20.5192 20.219 20.5478 20.2047C20.6049 20.1905 20.6477 20.1619 20.7048 20.1476C20.7477 20.1333 20.7762 20.1191 20.8191 20.1048C20.8762 20.0905 20.919 20.0619 20.9761 20.0477L21.1046 20.0048C21.1475 19.9905 21.2046 19.9763 21.2474 19.9477C21.2903 19.9334 21.3474 19.9192 21.3902 19.9049C21.4331 19.8906 21.4902 19.8763 21.533 19.862C21.5901 19.8478 21.6472 19.8335 21.6901 19.8192C21.7329 19.8049 21.7757 19.7906 21.8329 19.7764C21.89 19.7621 21.9471 19.7478 22.0185 19.7192C22.047 19.705 22.0756 19.705 22.1042 19.6907C22.3326 19.1053 23.0323 17.6488 24.2174 17.4917C24.346 17.4775 24.4602 17.4632 24.5744 17.4632H24.6601C24.6458 17.3775 24.6315 17.2918 24.6315 17.1919C24.5887 16.5636 24.7886 16.0353 25.0599 16.021C25.2741 16.0067 25.4454 16.3209 25.474 16.4208C25.5597 16.6064 25.6168 16.8492 25.6311 17.1205C25.6453 17.3632 25.6168 17.5917 25.5739 17.7916C25.6025 17.8202 25.6168 17.8487 25.6453 17.863C25.9166 18.2057 25.9595 18.6626 25.9452 19.0053C26.0451 18.991 26.1594 18.991 26.2736 18.9767C26.3022 18.9767 26.3307 18.9767 26.3593 18.9625H26.4164C26.5449 18.9482 26.6877 18.9339 26.8305 18.9339C27.1446 18.9054 27.4588 18.8911 27.7872 18.8768C27.6015 18.7768 27.4873 18.7197 27.4873 18.7197ZM30.4716 27.5155C29.9576 27.9725 29.415 28.3437 28.8724 28.6436C28.6011 28.7863 28.3298 28.9149 28.0727 29.0291C27.4873 29.2861 26.9304 29.4575 26.4307 29.586C25.3312 29.8573 24.5744 29.8573 24.5744 29.8573C25.1741 30.1857 25.9309 30.1857 26.4449 30.1428C26.8019 30.1143 27.0447 30.0429 27.0447 30.0429C27.0304 30.2571 27.0018 30.457 26.9733 30.6569C26.9304 30.8711 26.8733 31.0567 26.8019 31.228V31.2423C26.7162 31.4565 26.602 31.6421 26.4878 31.8135C26.4735 31.8278 26.4592 31.8563 26.4449 31.8706L26.4878 31.842C26.6734 31.7421 26.859 31.6278 27.0447 31.5136C27.1875 31.4279 27.3302 31.328 27.4588 31.2423C27.6872 31.0853 27.9157 30.9139 28.1441 30.7283C28.1584 30.714 28.1727 30.6997 28.187 30.6997C28.4012 30.5141 28.6153 30.3142 28.801 30.1143C29.058 29.843 29.2864 29.5717 29.4864 29.3004L29.5006 29.2861C29.5577 29.2147 29.6006 29.1576 29.6434 29.0862L29.6577 29.0719C29.672 29.0434 29.6863 29.0291 29.7005 29.0005C29.7719 28.9006 29.829 28.8149 29.9004 28.715C29.9147 28.6864 29.929 28.6721 29.9433 28.6436C29.9718 28.5864 30.0004 28.5436 30.0432 28.4865C30.0718 28.4437 30.0861 28.4151 30.1146 28.3723C30.1432 28.3294 30.1717 28.2866 30.186 28.2438C30.2289 28.1724 30.2717 28.0867 30.3145 28.0153L30.3574 27.9296L30.443 27.7583L30.4859 27.6726L30.5002 27.644C30.5287 27.5726 30.5716 27.5012 30.6001 27.4299C30.543 27.4441 30.5144 27.4727 30.4716 27.5155ZM17.4492 21.7611C17.3065 21.804 17.1351 21.8754 16.9638 21.9468C16.5068 22.1324 15.9928 22.4037 15.5359 22.7749C15.4788 22.8178 15.4216 22.8749 15.3645 22.9177C15.2646 23.0034 15.1789 23.0891 15.0932 23.189L15.0647 23.2176L15.0218 23.2604C14.9933 23.3033 14.9504 23.3318 14.9219 23.3746L14.879 23.4175C14.8362 23.4746 14.7934 23.5317 14.7648 23.5888C14.722 23.6459 14.6934 23.7031 14.6506 23.7602C14.3793 24.2314 14.2222 24.8025 14.2651 25.4879V25.4594C14.2651 25.4451 14.2651 25.4308 14.2793 25.4165V25.4022C14.2793 25.388 14.2936 25.3737 14.2936 25.3451V25.3309C14.2936 25.3166 14.3079 25.288 14.3079 25.2595C14.3079 25.2309 14.3222 25.2166 14.3364 25.1881V25.1738C14.3507 25.1452 14.3507 25.1167 14.365 25.0881V25.0738C14.3793 25.0453 14.3793 25.0167 14.3936 24.9882V24.9739C14.4078 24.9453 14.4221 24.9168 14.4364 24.8739L14.4507 24.8597C14.465 24.8311 14.4792 24.7883 14.5078 24.7597C14.5363 24.7026 14.5649 24.6597 14.5935 24.6026C14.6077 24.5884 14.622 24.5598 14.6363 24.5455L14.6506 24.5312L14.7363 24.4027C14.7648 24.3742 14.7934 24.3313 14.8219 24.3028L14.8505 24.2742C14.879 24.2457 14.8933 24.2171 14.9219 24.2028L14.9504 24.1743C14.979 24.1457 15.0218 24.1171 15.0504 24.0743C15.0504 24.0743 14.4364 25.4736 14.7077 26.5731V26.5588V26.5303V26.4874V26.4303V26.3589C14.7077 26.3304 14.7077 26.3018 14.722 26.2733C14.722 26.2447 14.722 26.2161 14.7363 26.1876V26.1733C14.7363 26.1448 14.7505 26.1019 14.7505 26.0734V26.0448C14.7648 26.002 14.7648 25.9734 14.7791 25.9306V25.9163C14.7934 25.8735 14.8076 25.8306 14.8076 25.8021C14.8076 25.7878 14.8219 25.7735 14.8219 25.7592L14.8362 25.7307C14.8505 25.7021 14.8648 25.6593 14.879 25.6307C14.8933 25.5879 14.9219 25.545 14.9504 25.5022C14.9504 25.4879 14.9647 25.4736 14.9647 25.4736L15.0504 25.3451C15.0504 25.3451 15.0218 25.6878 15.0218 26.1019C15.0218 26.1733 15.0218 26.2304 15.0361 26.3018C15.0361 26.3447 15.0361 26.3875 15.0504 26.4303C15.0789 25.9877 15.1646 25.5736 15.2789 25.1881C15.3074 25.0881 15.3502 24.9739 15.3788 24.8739C15.3788 24.8597 15.3931 24.8454 15.3931 24.8311C15.4359 24.7311 15.4645 24.6455 15.5073 24.5455C15.5216 24.5312 15.5216 24.517 15.5359 24.4884C15.5787 24.4027 15.6215 24.3028 15.6644 24.2171C15.6787 24.2028 15.6787 24.1885 15.6787 24.1743C15.7786 23.9886 15.8786 23.8173 15.9785 23.6602C15.9928 23.6459 15.9928 23.6317 16.0071 23.6174C16.0499 23.5603 16.0927 23.5032 16.1356 23.4318C16.1499 23.4175 16.1499 23.4032 16.1641 23.3889C16.1784 23.3746 16.1784 23.3604 16.1927 23.3461C16.2498 23.2747 16.2927 23.2033 16.3498 23.1319C16.364 23.1176 16.364 23.1033 16.3783 23.1033C16.4354 23.032 16.4926 22.9606 16.5497 22.9034C16.6211 22.8178 16.6925 22.7464 16.7639 22.6607C16.821 22.6036 16.8638 22.5465 16.9209 22.5036L16.978 22.4465C17.0923 22.3323 17.2065 22.2181 17.3207 22.1181C17.6349 21.8325 17.8919 21.6469 17.9776 21.5898C17.9204 21.6041 17.8633 21.6183 17.7919 21.6326C17.7063 21.6755 17.592 21.7183 17.4492 21.7611Z" fill="#F2D2AC"/>
<path d="M25.674 18.6628C25.674 18.6628 25.674 18.6343 25.6597 18.5772C25.6026 18.3772 25.4027 17.8918 24.6173 17.9632C23.7892 18.0488 23.5036 18.7199 23.4322 18.9484C23.4179 18.9912 23.4179 19.0198 23.4179 19.0198L23.4465 19.0341C23.5464 18.9484 23.7463 18.9484 23.932 19.0769C24.0176 19.134 24.0747 19.1911 24.1319 19.2625C24.2032 19.3768 24.2175 19.491 24.1747 19.5767L24.1319 19.6195C24.1319 19.6195 24.1604 19.6338 24.2175 19.6481C24.446 19.7195 25.0885 19.848 25.4312 19.4053C25.4455 19.3768 25.4598 19.3625 25.4741 19.3339C25.4027 19.3054 25.3741 19.2054 25.3741 19.0769C25.3741 19.0198 25.3884 18.9627 25.4027 18.8913C25.4455 18.7199 25.574 18.62 25.674 18.6628ZM21.5474 24.7742C21.0048 24.8884 20.5336 24.9741 20.1766 25.0312C20.1909 25.0312 20.2194 25.0312 20.2337 25.0455C20.8477 25.1169 21.8187 25.2168 22.9895 25.1454C25.1314 25.0169 27.9443 24.3458 30.5002 22.0326V22.0184C30.5145 21.8185 30.486 21.4758 30.2432 21.2045C30.2004 21.1616 30.1575 21.1188 30.1004 21.076C30.0862 21.076 30.0862 21.0617 30.0719 21.0617C30.0005 21.0188 29.9434 20.9903 29.8862 20.9474L29.7577 20.8618V20.8475C29.6007 21.076 29.415 21.2901 29.2151 21.49C29.1437 21.5614 29.0724 21.6328 28.9867 21.7042C28.287 22.3325 27.3732 22.8751 26.3879 23.3035C24.7601 24.0174 22.9324 24.4886 21.5474 24.7742ZM8.01098 21.0474C7.98242 21.0617 7.96814 21.0902 7.93958 21.1045L7.91103 21.1331C7.88247 21.1616 7.85391 21.1902 7.83963 21.2187L7.82535 21.233L7.73968 21.3615L7.7254 21.3758C7.7254 21.3901 7.71112 21.3901 7.71112 21.4044L7.66829 21.49V21.5186C7.65401 21.5614 7.62545 21.6043 7.61117 21.6471C7.56833 21.7613 7.5255 21.8756 7.49694 21.9755C7.48266 22.0041 7.48266 22.0469 7.46838 22.0612C7.4541 22.1183 7.43982 22.1754 7.43982 22.1897C7.43982 22.1469 7.43982 22.1183 7.4541 22.0755C7.4541 22.0041 7.46838 21.9184 7.46838 21.847C7.46838 21.7899 7.48266 21.7185 7.49694 21.6614C7.49694 21.6471 7.49694 21.6186 7.51122 21.6043C7.51122 21.5757 7.5255 21.5472 7.5255 21.5186C7.5255 21.49 7.53978 21.4615 7.53978 21.4329V21.3901C7.53978 21.3615 7.55405 21.3187 7.55405 21.2901V21.2187V21.1902C7.55405 21.1759 7.55405 21.1616 7.56833 21.1474C7.58261 21.1045 7.59689 21.0474 7.59689 21.0046V20.9903C7.61117 20.9617 7.61117 20.9189 7.62545 20.8903V20.8761C7.63973 20.8047 7.66829 20.7333 7.68256 20.6619V20.6333C7.68256 20.619 7.68256 20.6048 7.69684 20.5905C7.7254 20.4762 7.76824 20.362 7.7968 20.2621V20.2478C7.82535 20.1621 7.86819 20.0622 7.89675 19.9765V19.9622C7.91103 19.9194 7.92531 19.8908 7.93958 19.848C7.96814 19.7909 7.98242 19.7337 8.01098 19.6766C8.01098 19.6623 8.02526 19.6338 8.05382 19.5767C8.06809 19.5624 8.06809 19.5338 8.08237 19.5196C8.09665 19.491 8.11093 19.4624 8.12521 19.4196L8.13949 19.391C8.12521 19.3768 8.09665 19.3768 8.08237 19.3625H8.06809L8.03954 19.3482C7.91103 19.2911 7.76824 19.234 7.62545 19.1911H7.59689C7.49694 19.1626 7.41127 19.1483 7.31131 19.134C7.2542 19.134 7.19708 19.1197 7.13997 19.1197H6.99718C6.92578 19.1197 6.85439 19.134 6.78299 19.134C6.75444 19.134 6.74016 19.134 6.7116 19.1483C6.68304 19.1483 6.64021 19.1626 6.61165 19.1626C6.59737 19.1626 6.58309 19.1626 6.56881 19.1769C6.54025 19.1769 6.52597 19.1911 6.49742 19.1911C6.45458 19.2054 6.39746 19.2197 6.35463 19.234C6.34035 19.234 6.31179 19.2483 6.29751 19.2483C6.2404 19.2768 6.169 19.2911 6.11189 19.3197C6.08333 19.3339 6.06905 19.3482 6.04049 19.3482L5.95482 19.391L5.92626 19.4053C5.8977 19.4196 5.86914 19.4339 5.84059 19.4624C5.81203 19.4767 5.78347 19.491 5.75491 19.5196C5.72636 19.5338 5.6978 19.5624 5.66924 19.5767C5.65496 19.591 5.6264 19.6052 5.61212 19.6195C5.56929 19.6623 5.51217 19.7052 5.46934 19.748L5.39794 19.8194C5.3551 19.8623 5.32655 19.9051 5.28371 19.9479L5.26943 19.9622C5.25515 19.9908 5.22659 20.005 5.21232 20.0336L5.16948 20.0764C5.09808 20.1764 5.02669 20.2906 4.96957 20.4048C4.9553 20.4191 4.9553 20.4334 4.94102 20.4477C4.91246 20.5048 4.89818 20.5619 4.86962 20.619C4.85534 20.6476 4.85534 20.6619 4.84106 20.6904C4.84106 20.7047 4.85534 20.719 4.85534 20.7333C4.86962 20.7904 4.8839 20.8332 4.89818 20.8903V20.9189C4.91246 20.9617 4.94102 21.0188 4.9553 21.0617C5.01241 21.2045 5.06953 21.333 5.14092 21.4472C5.1552 21.4615 5.1552 21.4758 5.16948 21.49V21.5043L5.18376 21.5186C5.22659 21.6043 5.26943 21.6757 5.31227 21.7328C5.38366 21.8327 5.44078 21.9041 5.48361 21.9613L5.51217 21.9898C5.51217 22.0041 5.52645 22.0041 5.52645 22.0041L5.55501 22.0326C5.55501 22.0041 5.54073 21.9755 5.54073 21.9613C5.49789 21.7756 5.48361 21.6043 5.48361 21.4187V21.3901C5.48361 21.2759 5.48361 21.1616 5.49789 21.0617L5.54073 21.1902C5.55501 21.2473 5.58357 21.3044 5.59785 21.3615V21.3901C5.68352 21.6328 5.78347 21.8327 5.88342 21.9898C5.99765 22.1897 6.09761 22.3182 6.169 22.4039C6.18328 22.4182 6.19756 22.4325 6.19756 22.4467L6.22612 22.4753C6.18328 22.2754 6.15472 22.0898 6.15472 21.9041V21.7185C6.15472 21.6328 6.15472 21.5614 6.169 21.49C6.19756 21.6186 6.2404 21.7471 6.28323 21.8613V21.8756C6.4403 22.2897 6.62593 22.5895 6.75444 22.7751L6.76872 22.7894C6.79727 22.818 6.81155 22.8465 6.82583 22.8751C6.84011 22.8894 6.85439 22.9037 6.85439 22.9179L6.88295 22.9465L6.89723 22.9608V22.9322C6.89723 22.9037 6.88295 22.8751 6.88295 22.8465C6.86867 22.7466 6.85439 22.6466 6.84011 22.561C6.84011 22.5038 6.82583 22.4325 6.82583 22.3753V22.204V22.1754V22.0612C6.82583 21.9898 6.84011 21.9041 6.84011 21.8327C6.85439 21.8756 6.86867 21.9327 6.88295 21.9755C6.89723 22.0041 6.9115 22.0469 6.92578 22.0755V22.0898L6.94006 22.104C6.95434 22.1469 6.96862 22.1897 6.9829 22.2183C7.01146 22.2897 7.04001 22.3611 7.08285 22.4182C7.12569 22.5038 7.15425 22.5752 7.19708 22.6324C7.22564 22.6752 7.23992 22.7038 7.2542 22.7323C7.28276 22.7751 7.31131 22.818 7.32559 22.8465C7.35415 22.8751 7.36843 22.9037 7.38271 22.9322L7.39699 22.9465C7.41127 22.9751 7.43982 22.9893 7.4541 23.0179C7.46838 23.0322 7.48266 23.0464 7.48266 23.0607C7.51122 23.0893 7.5255 23.1178 7.53978 23.1178L7.55405 23.1321V23.0893C7.56833 22.9751 7.58261 22.8465 7.59689 22.7323V22.6895C7.61117 22.5467 7.63973 22.4182 7.66829 22.2897C7.66829 22.2754 7.66829 22.2611 7.68256 22.2325V22.2183C7.68256 22.204 7.68256 22.1897 7.69684 22.1754C7.69684 22.1469 7.71112 22.1326 7.71112 22.104C7.7254 22.0041 7.75396 21.9041 7.76824 21.8042C7.78252 21.7185 7.7968 21.6328 7.81107 21.5614V21.5329C7.81107 21.5186 7.81107 21.5043 7.82535 21.5043V21.4758C7.82535 21.4615 7.83963 21.4329 7.83963 21.4187C7.83963 21.4044 7.83963 21.3901 7.85391 21.3758C7.85391 21.3473 7.86819 21.3187 7.86819 21.3044C7.86819 21.2901 7.88247 21.2616 7.88247 21.2473C7.88247 21.2187 7.89675 21.1902 7.89675 21.1759C7.89675 21.1616 7.89675 21.1474 7.91103 21.1331C7.91103 21.1188 7.91103 21.1045 7.92531 21.1045C7.92531 21.076 7.93958 21.0617 7.93958 21.0474V21.0046L8.01098 21.0474ZM25.317 27.016C25.5169 26.9446 25.6883 26.8875 25.831 26.8304C26.1023 26.7161 26.2451 26.6305 26.2451 26.6019C26.2309 26.5733 26.0738 26.5876 25.7882 26.659C25.6454 26.6876 25.4741 26.7161 25.2599 26.7732C25.1599 26.8018 25.0457 26.8161 24.9315 26.8304C24.8172 26.8446 24.6887 26.8732 24.5602 26.8875C24.3032 26.9303 24.0176 26.9589 23.7035 26.9874L23.2323 27.0303C23.0752 27.0445 22.9039 27.0445 22.7325 27.0588C22.0471 27.0731 21.2904 27.0445 20.5193 26.9017C20.1195 26.8304 19.5626 26.6447 19.1771 26.4305L19.1628 26.4163C19.3913 25.6024 20.248 25.4881 20.248 25.4881L20.2194 25.4739H20.1766C20.0481 25.4596 19.9481 25.4453 19.8482 25.431C19.7768 25.4167 19.7197 25.4167 19.6768 25.4025C19.634 25.4025 19.5912 25.3882 19.5769 25.3882C19.0628 25.3596 18.7773 25.788 18.6916 25.9736L18.6488 26.0593C18.5774 26.2306 18.5202 26.4163 18.506 26.6304C18.4774 27.016 18.5774 27.4301 18.8772 27.787C19.0771 28.0298 19.4198 28.244 19.8625 28.4153C19.4769 28.1726 19.1342 27.7014 19.12 26.9731C19.5626 27.1588 20.0624 27.273 20.4479 27.3444C21.2618 27.5015 22.0614 27.5157 22.7611 27.4729C22.9324 27.4586 23.1181 27.4443 23.2751 27.4301C23.4465 27.4015 23.6035 27.3872 23.7606 27.373C24.0747 27.3158 24.346 27.273 24.6173 27.2159C24.7458 27.1873 24.8744 27.1588 24.9886 27.1159C25.1171 27.0874 25.217 27.0588 25.317 27.016Z" fill="#F2D2AC"/>
<path d="M24.6459 17.4772C25.0743 17.4915 25.3599 17.62 25.5598 17.8199C25.6026 17.6343 25.6312 17.4058 25.6169 17.1488C25.6026 16.8775 25.5455 16.6348 25.4598 16.4491C25.4313 16.3349 25.2599 16.035 25.0457 16.0493C24.7744 16.0636 24.5745 16.5919 24.6174 17.2202C24.6174 17.3059 24.6316 17.3915 24.6459 17.4772ZM25.3599 19.0907C25.3599 19.205 25.4027 19.3049 25.4598 19.3477C25.5598 19.4049 25.6883 19.2906 25.7454 19.105C25.7454 19.0907 25.7597 19.0764 25.7597 19.0622C25.8025 18.8908 25.7597 18.7195 25.6597 18.6766C25.5598 18.6195 25.4313 18.7338 25.3741 18.9194C25.3741 18.9765 25.3599 19.0336 25.3599 19.0907ZM23.4179 19.4049C23.4608 19.4763 23.5322 19.5477 23.6178 19.6048C23.8035 19.719 24.0034 19.7333 24.1176 19.6333L24.1604 19.5905C24.2033 19.5048 24.189 19.3906 24.1176 19.2764C24.0748 19.205 24.0034 19.1336 23.9177 19.0907C23.7321 18.9765 23.5322 18.9622 23.4322 19.0479C23.4179 19.0622 23.4037 19.0764 23.3894 19.105C23.3465 19.1764 23.3608 19.2906 23.4179 19.4049ZM30.5145 22.0179C30.5003 22.0179 30.5003 22.0179 30.5145 22.0179ZM30.2861 25.9732C30.0148 26.2302 29.7149 26.4729 29.3722 26.7014C27.9015 27.7009 25.8453 28.4862 24.3889 28.6719C23.2894 28.8432 22.2185 28.8718 21.2904 28.7575C20.7478 28.6861 20.2766 28.5719 19.8625 28.4148C19.4198 28.2435 19.0772 28.0293 18.8772 27.7866C18.5774 27.4296 18.4917 27.0012 18.506 26.63C18.5203 26.4301 18.5631 26.2302 18.6488 26.0588L18.6916 25.9732C18.7916 25.7875 19.0629 25.3449 19.5769 25.3877C19.5912 25.3877 19.634 25.3877 19.6769 25.402C19.7197 25.402 19.7911 25.4163 19.8482 25.4306C19.9482 25.4448 20.0481 25.4591 20.1766 25.4734H20.2195C21.6331 25.6447 22.9896 25.6305 24.2747 25.4306C26.1452 25.145 27.873 24.4739 29.4151 23.4315C29.5007 23.3744 29.5721 23.3173 29.6578 23.2602L30.5003 22.0036C27.9443 24.3311 25.1314 25.0022 22.9896 25.1307C21.8187 25.2021 20.8477 25.1164 20.2337 25.0307C20.2052 25.0307 20.1909 25.0307 20.1766 25.0165C19.991 24.9879 19.8482 24.9736 19.734 24.9594C19.6769 24.9594 19.634 24.9451 19.6055 24.9451C19.4484 24.9308 19.2913 24.9594 19.1485 25.0022C18.863 25.0879 18.6059 25.2878 18.4203 25.5448C18.1919 25.8589 18.0491 26.2873 18.0491 26.7157C18.0491 27.0726 18.1347 27.4439 18.3204 27.7866C18.3347 27.8009 18.3346 27.8151 18.3489 27.8294C18.3775 27.8722 18.3918 27.9008 18.4203 27.9436C18.4489 27.9865 18.4917 28.0436 18.5346 28.0864C18.9772 28.6433 19.9482 29.0431 21.2333 29.2145C22.1043 29.3287 23.1181 29.3144 24.2176 29.1573C27.4731 28.5719 29.0153 27.5153 29.7292 26.7871C29.7863 26.7299 29.8292 26.6871 29.872 26.63C30.129 26.3301 30.2433 26.1017 30.2861 26.016V26.0017C30.3004 25.9732 30.3004 25.9589 30.3004 25.9589L30.2861 25.9732Z" fill="#664F44"/>
<path d="M19.9339 14.6931C19.834 14.636 19.7198 14.5931 19.6055 14.5646C19.5341 14.5503 19.4627 14.536 19.3771 14.5217C19.3485 14.5217 19.3199 14.5217 19.2914 14.5074C18.9059 14.4789 18.5774 14.536 18.5774 14.536C18.506 14.5503 18.4347 14.5646 18.3775 14.5931C17.8635 14.7502 17.5065 15.0215 17.2495 15.3356C17.0496 15.5926 16.9068 15.8639 16.8354 16.1352C16.8211 16.1638 16.8211 16.1781 16.8211 16.2066C16.8069 16.278 16.7783 16.3494 16.764 16.4065C16.7212 16.635 16.6926 16.8349 16.6926 17.0063C16.6926 17.2347 16.7069 17.3775 16.7069 17.3775C16.7926 17.1776 16.8925 17.0063 16.9925 16.8349C17.2352 16.4208 17.4922 16.0781 17.7635 15.8068C18.2776 15.2785 18.8059 14.9929 19.2057 14.8501C19.6341 14.7074 19.9339 14.6931 19.9339 14.6931ZM26.1167 13.9649L26.1024 13.9363C26.0453 13.8649 25.9739 13.7935 25.8882 13.7364C25.6883 13.6079 25.417 13.5365 25.0458 13.6079C25.0458 13.6079 24.6031 13.7078 24.3461 14.0077C24.3461 14.0077 25.1172 13.6793 25.9454 14.2647C26.0167 14.3218 26.1024 14.3789 26.1738 14.4503C26.2452 14.5217 26.3309 14.5931 26.4023 14.6931C26.4023 14.6931 26.3737 14.3361 26.1595 14.022C26.1453 13.9934 26.131 13.9791 26.1167 13.9649Z" fill="#E9B784"/>
<path d="M20.0338 19.6475C20.3337 19.5619 20.6478 19.4762 21.0048 19.3905C21.0619 19.1192 21.0762 18.7908 21.0334 18.4338C20.9334 17.6056 20.5622 16.9631 20.1909 17.0059C19.8197 17.0488 19.6055 17.7627 19.7054 18.5909C19.7625 19.0193 19.8768 19.3905 20.0338 19.6475Z" fill="#664F44"/>
<path d="M18.3345 0.985352L17.5635 1.1567L17.7205 2.55603L15.6786 1.51367L14.8362 1.77069L14.8505 1.78497L17.335 4.61219L17.3635 4.59791L17.3921 4.58363C17.4635 4.5408 17.5492 4.48368 17.6206 4.44084C17.6491 4.42657 17.6777 4.41229 17.7062 4.38373C17.8205 4.31233 17.9347 4.24094 18.0489 4.18382L16.9923 2.97012L18.6915 3.79829C18.7486 3.76974 18.7914 3.74118 18.8486 3.71262L18.6915 2.49891L19.4625 3.39848H19.4768C19.5482 3.36993 19.6053 3.32709 19.6767 3.29853L19.7053 3.28425L19.7338 3.26997C19.7481 3.26997 19.7624 3.2557 19.7624 3.2557L19.8481 3.21286C19.8481 3.21286 19.8624 3.21286 19.8624 3.19858C19.948 3.15574 20.048 3.11291 20.1337 3.07007L18.3345 0.985352Z" fill="#FFD250"/>
<path d="M17.5778 1.15646L17.692 1.1279C17.5064 1.04223 17.2779 0.985113 17.0209 0.942276C16.5069 0.870881 15.85 0.942276 15.1075 1.1279C14.365 1.31353 13.5226 1.64194 12.6373 2.08459C10.8524 2.96988 8.88193 4.32637 6.96856 6.0684C6.29745 6.66811 5.68346 7.29638 5.1123 7.91038L7.42549 10.7662C8.05376 10.0808 8.72487 9.39538 9.46737 8.72427C10.4526 7.8247 11.4521 7.02509 12.4374 6.3397C13.3941 5.66859 14.3508 5.09743 15.2503 4.64051L14.8505 2.81281L14.8648 1.78473L14.8505 1.77045L15.693 1.51343L17.335 2.35589L17.2922 1.78473L17.5778 1.15646Z" fill="#4D9ED7"/>
<path d="M17.5779 1.15674L17.2923 1.78501L17.3351 2.37044L17.7349 2.57035L17.5779 1.15674ZM16.9924 2.97016L18.7059 3.81261L18.0491 4.18386L16.9924 2.97016ZM18.7059 2.49895L18.863 3.71266L19.477 3.39852L18.7059 2.49895Z" fill="#132134"/>
<path d="M25.1599 2.05619H25.474C25.7596 2.05619 26.0309 2.09903 26.2879 2.15615C26.3022 2.15615 26.3165 2.15614 26.3308 2.17042H26.3451L26.3736 2.1847H26.4022C26.3736 2.17042 26.3451 2.14187 26.3165 2.12759C26.0309 2.01336 25.7311 1.94196 25.4169 1.89912C23.8748 1.69922 22.1042 2.27038 21.1047 2.67019C21.0476 2.69874 20.9905 2.71302 20.9333 2.74158C20.8477 2.78442 20.762 2.81297 20.6763 2.85581C20.5335 2.91293 20.3908 2.98432 20.2337 3.05572C20.2051 3.06999 20.1908 3.06999 20.1623 3.08427C20.0766 3.12711 19.9767 3.16995 19.891 3.21278C19.891 3.21278 19.8767 3.21278 19.8767 3.22706L19.791 3.2699C19.7768 3.2699 19.7625 3.28418 19.7625 3.28418H19.7054L19.6911 3.29846C19.6197 3.32701 19.5626 3.35557 19.4912 3.39841H19.4769C19.4626 3.41269 19.4483 3.41269 19.4341 3.42697H19.4198C19.4055 3.42697 19.3912 3.44125 19.3912 3.44125C19.2913 3.49836 19.1913 3.5412 19.0914 3.59831C19.02 3.64115 18.9486 3.66971 18.8772 3.71254H18.8629C18.8058 3.7411 18.763 3.76966 18.7058 3.79822C18.5345 3.88389 18.3774 3.98384 18.2061 4.0838C18.1918 4.09807 18.1775 4.09807 18.149 4.11235C18.1347 4.12663 18.1204 4.12663 18.1061 4.14091C18.0918 4.15519 18.0776 4.15519 18.0633 4.16947L18.049 4.18375C17.9348 4.25514 17.8205 4.31226 17.7063 4.38365C17.6778 4.39793 17.6492 4.41221 17.6206 4.44077C17.5493 4.4836 17.4636 4.54072 17.3922 4.58356L17.3636 4.59784L17.3351 4.61211L16.6925 5.04048C16.3355 5.28322 15.9929 5.52596 15.6502 5.78298C15.6073 5.81154 15.5645 5.85438 15.5216 5.88294C14.6221 6.55404 13.7653 7.28227 12.9372 8.02477C12.0662 8.82439 11.2237 9.63829 10.4384 10.4665C10.01 10.8948 9.63874 11.2804 9.35316 11.5945C8.75345 12.237 8.42504 12.6369 8.43931 12.6511C8.43931 12.6511 8.49643 12.6083 8.59638 12.5083C8.52499 12.594 8.43931 12.694 8.36792 12.7796C9.68158 11.3803 11.1237 9.95242 12.6801 8.61021C13.6226 7.79631 14.6078 7.01097 15.6216 6.28275C16.0642 5.96861 16.5212 5.65447 16.9781 5.35462C17.1209 5.25467 17.278 5.16899 17.4207 5.06904C17.4921 5.0262 17.5635 4.98337 17.6492 4.94053C17.692 4.91197 17.7349 4.88341 17.7777 4.86913C17.8634 4.8263 17.9348 4.76918 18.0205 4.72635C18.0918 4.68351 18.1775 4.64067 18.2489 4.58356C18.2918 4.555 18.3346 4.54072 18.3774 4.51216L18.6773 4.34082C18.7344 4.31226 18.7915 4.26942 18.8486 4.24086C19.0343 4.14091 19.2199 4.04096 19.4198 3.94101C19.4341 3.92673 19.4483 3.92673 19.4626 3.91245L19.5483 3.86961C19.5911 3.85533 19.6197 3.82678 19.6625 3.8125C19.6768 3.79822 19.6911 3.79822 19.7054 3.78394L19.791 3.7411C19.791 3.7411 19.8053 3.7411 19.8053 3.72682H19.8196C19.9053 3.68399 19.9909 3.64115 20.0623 3.61259C20.0766 3.61259 20.0909 3.59831 20.1052 3.58403L20.1908 3.5412C20.2908 3.49836 20.3765 3.45552 20.4764 3.41269C20.505 3.39841 20.5335 3.38413 20.5478 3.36985C20.5621 3.36985 20.5764 3.35557 20.5907 3.35557C20.6192 3.34129 20.6478 3.32701 20.6763 3.32701C20.7906 3.28418 20.8905 3.22706 21.0047 3.18423C21.1047 3.14139 21.1904 3.09855 21.2903 3.05572C21.8329 2.82725 22.3327 2.64163 22.8039 2.48456C23.6892 2.24182 24.4745 2.08475 25.1599 2.05619Z" fill="white"/>
</g>
<defs>
<clipPath id="clip0_1_51">
<rect width="32" height="36.1827" fill="white"/>
</clipPath>
</defs>
</svg>
