<svg width="32" height="24" viewBox="0 0 32 24" fill="none" xmlns="http://www.w3.org/2000/svg">
<path d="M31.2034 23.0077H25.6304C25.4263 23.0077 25.2306 22.9266 25.0862 22.7823C24.9419 22.638 24.8608 22.4422 24.8608 22.2381V1.66804C24.8621 1.46463 24.9437 1.26998 25.0879 1.12646C25.232 0.982934 25.427 0.902165 25.6304 0.901735H31.2017C31.4056 0.901298 31.6012 0.981736 31.7458 1.1254C31.8904 1.26906 31.9721 1.46421 31.973 1.66804V22.2381C31.9732 22.3392 31.9534 22.4394 31.9148 22.5329C31.8762 22.6264 31.8195 22.7113 31.748 22.7828C31.6765 22.8543 31.5916 22.911 31.4981 22.9496C31.4047 22.9882 31.3045 23.0079 31.2034 23.0077Z" fill="url(#paint0_linear_305_8)"/>
<path d="M5.37436 23.0851L0.39669 20.579C0.214456 20.4873 0.0760659 20.327 0.0119299 20.1334C-0.052206 19.9398 -0.0368403 19.7286 0.0546505 19.5463L9.28973 1.17477C9.38138 0.992532 9.54164 0.854142 9.73528 0.790006C9.92892 0.72587 10.1401 0.741236 10.3224 0.832726L15.3017 3.33389C15.484 3.42555 15.6224 3.58581 15.6865 3.77945C15.7506 3.97309 15.7353 4.18427 15.6438 4.36659L6.40705 22.743C6.3154 22.9252 6.15514 23.0636 5.9615 23.1278C5.76786 23.1919 5.55667 23.1765 5.37436 23.0851Z" fill="url(#paint1_linear_305_8)"/>
<path d="M20.0772 22.6706L24.0238 2.63992C24.063 2.44046 24.0218 2.23357 23.909 2.06442C23.7963 1.89527 23.6211 1.77761 23.4219 1.73713L17.9608 0.633726C17.8615 0.613834 17.7592 0.613709 17.6598 0.633358C17.5604 0.653007 17.4659 0.692045 17.3816 0.748242C17.2973 0.804439 17.2249 0.876693 17.1685 0.960878C17.1122 1.04506 17.0729 1.13953 17.0531 1.23887L13.1065 21.2712C13.0673 21.4709 13.1087 21.678 13.2218 21.8472C13.3349 22.0164 13.5104 22.1339 13.71 22.174L19.1695 23.2758C19.2688 23.2961 19.3712 23.2966 19.4708 23.2771C19.5703 23.2577 19.665 23.2187 19.7494 23.1624C19.8338 23.1061 19.9063 23.0337 19.9625 22.9493C20.0188 22.8649 20.0577 22.7702 20.0772 22.6706Z" fill="url(#paint2_linear_305_8)"/>
<defs>
<linearGradient id="paint0_linear_305_8" x1="18.1023" y1="15.7591" x2="33.1372" y2="10.2157" gradientUnits="userSpaceOnUse">
<stop offset="0.02" stop-color="#B02DE9"/>
<stop offset="0.8" stop-color="#6D00CC"/>
</linearGradient>
<linearGradient id="paint1_linear_305_8" x1="4.9057" y1="13.23" x2="21.0687" y2="6.24123" gradientUnits="userSpaceOnUse">
<stop stop-color="#FF00FF"/>
<stop offset="0.18" stop-color="#E80DF9"/>
<stop offset="0.54" stop-color="#C024ED"/>
<stop offset="0.73" stop-color="#B02DE9"/>
</linearGradient>
<linearGradient id="paint2_linear_305_8" x1="1.13507" y1="18.3738" x2="34.2669" y2="6.17543" gradientUnits="userSpaceOnUse">
<stop offset="0.02" stop-color="#FF00FF"/>
<stop offset="0.09" stop-color="#E80DF9"/>
<stop offset="0.23" stop-color="#C024ED"/>
<stop offset="0.3" stop-color="#B02DE9"/>
<stop offset="0.42" stop-color="#A42BE3"/>
<stop offset="0.63" stop-color="#8527D5"/>
<stop offset="0.85" stop-color="#6021C3"/>
</linearGradient>
</defs>
</svg>
