<svg width="77" height="55" viewBox="0 0 77 55" fill="none" xmlns="http://www.w3.org/2000/svg">
<g filter="url(#filter0_d_1025_15908)">
<path d="M55.1997 18.698C55.2389 19.1208 55.5409 19.4727 55.9529 19.5757L55.9972 19.5868C56.0593 19.6023 56.1229 19.6118 56.1869 19.6152C60.021 19.8178 63.6238 21.5122 66.2251 24.3362C68.8264 27.1602 70.2198 30.8897 70.1075 34.7276C69.9951 38.5655 68.386 42.2071 65.624 44.8742C62.862 47.5412 59.1663 49.022 55.3269 49H55.3212C47.4747 49 41.2476 42.8956 40.616 34.3046C40.2015 28.1121 41.1843 21.9056 43.4919 16.1441C45.7985 10.3851 49.3697 5.21801 53.9416 1.02473C53.9607 1.00877 53.9849 1 54.0098 1C54.0351 1 54.0595 1.00896 54.0787 1.02523C54.6709 1.5648 55.0851 1.97842 56.0071 2.93343L56.0071 2.93345L56.0125 2.93891L59.3323 6.32513L59.3437 6.33656C59.3615 6.35417 59.3726 6.37751 59.3749 6.40246C59.3772 6.42743 59.3707 6.45241 59.3565 6.47301L59.3539 6.47672C55.2403 12.4872 55.0339 16.9131 55.1997 18.698Z" fill="white" stroke="#024EF5" stroke-width="2" stroke-linejoin="round"/>
<path d="M15.8933 18.6985C15.9395 19.1924 16.3407 19.5778 16.8361 19.604C20.6691 19.8069 24.2708 21.5006 26.8718 24.3234C29.4727 27.1463 30.8666 30.8743 30.7557 34.7111C30.6447 38.5478 29.0378 42.1891 26.2781 44.8569C23.5184 47.5247 19.8248 49.0076 15.9865 48.9886H15.9815C8.12329 48.9886 1.89723 42.8837 1.27645 34.2942C0.865385 28.1017 1.85203 21.896 4.16341 16.1362C6.47384 10.3789 10.0488 5.21446 14.6239 1.02484C14.6431 1.00882 14.6673 1 14.6923 1C14.7185 1 14.7437 1.00961 14.7632 1.02699L15.4282 0.280143L14.7614 1.02539C15.2588 1.4704 15.6123 1.82919 16.26 2.48672C16.393 2.62166 16.5383 2.76919 16.6998 2.93262C17.3863 3.66379 18.4121 4.71139 20.0328 6.33212L20.0328 6.33214L20.0372 6.33652C20.0551 6.35414 20.0661 6.37747 20.0684 6.40241C20.0708 6.42736 20.0643 6.45234 20.05 6.47295L20.047 6.4774C15.9342 12.498 15.7273 16.9238 15.8933 18.6985Z" fill="white" stroke="#024EF5" stroke-width="2" stroke-linejoin="round"/>
</g>
<defs>
<filter id="filter0_d_1025_15908" x="0.185547" y="0" width="75.9282" height="55.0005" filterUnits="userSpaceOnUse" color-interpolation-filters="sRGB">
<feFlood flood-opacity="0" result="BackgroundImageFix"/>
<feColorMatrix in="SourceAlpha" type="matrix" values="0 0 0 0 0 0 0 0 0 0 0 0 0 0 0 0 0 0 127 0" result="hardAlpha"/>
<feOffset dx="5" dy="5"/>
<feComposite in2="hardAlpha" operator="out"/>
<feColorMatrix type="matrix" values="0 0 0 0 0.00784314 0 0 0 0 0.305882 0 0 0 0 0.960784 0 0 0 0.3 0"/>
<feBlend mode="normal" in2="BackgroundImageFix" result="effect1_dropShadow_1025_15908"/>
<feBlend mode="normal" in="SourceGraphic" in2="effect1_dropShadow_1025_15908" result="shape"/>
</filter>
</defs>
</svg>
