<svg width="32" height="30" viewBox="0 0 32 30" fill="none" xmlns="http://www.w3.org/2000/svg">
<path d="M32 15.2348C32 13.115 29.3453 11.106 25.2752 9.8602C26.2144 5.71181 25.797 2.41136 23.9576 1.3547C23.5336 1.10684 23.0379 0.989433 22.4965 0.989433V2.44398C22.7966 2.44398 23.0379 2.50268 23.2401 2.61357C24.1272 3.12233 24.512 5.05955 24.212 7.55119C24.1402 8.16432 24.0228 8.81006 23.8793 9.46885C22.6009 9.15576 21.2051 8.91442 19.7375 8.75788C18.8569 7.55119 17.9437 6.45539 17.0241 5.49657C19.1504 3.52021 21.1464 2.43746 22.5031 2.43746V0.98291C20.7093 0.98291 18.3612 2.26135 15.987 4.47904C13.6127 2.27439 11.2646 1.009 9.47085 1.009V2.46355C10.821 2.46355 12.8235 3.53978 14.9499 5.50309C14.0367 6.46192 13.1235 7.55119 12.256 8.75788C10.7819 8.91442 9.38606 9.15576 8.10762 9.47537C7.9576 8.82311 7.84672 8.19041 7.76845 7.58381C7.46188 5.09216 7.8402 3.15494 8.72075 2.63966C8.91643 2.52225 9.17081 2.47007 9.47085 2.47007V1.01552C8.92295 1.01552 8.42723 1.13293 7.99674 1.38079C6.16388 2.43746 5.75296 5.73138 6.69874 9.86673C2.64166 11.1191 0 13.1215 0 15.2348C0 17.3547 2.65471 19.3637 6.72483 20.6095C5.78557 24.7579 6.20302 28.0583 8.0424 29.115C8.46637 29.3629 8.96209 29.4803 9.50999 29.4803C11.3037 29.4803 13.6519 28.2018 16.0261 25.9841C18.4003 28.1888 20.7485 29.4542 22.5422 29.4542C23.0901 29.4542 23.5858 29.3368 24.0163 29.0889C25.8492 28.0322 26.2601 24.7383 25.3143 20.603C29.3583 19.3571 32 17.3482 32 15.2348ZM23.5075 10.8843C23.2662 11.7257 22.9662 12.5932 22.627 13.4607C22.3596 12.9389 22.0791 12.4171 21.7725 11.8953C21.4725 11.3735 21.1529 10.8647 20.8333 10.369C21.7595 10.5059 22.6531 10.6755 23.5075 10.8843ZM20.5202 17.8308C20.0114 18.7114 19.4896 19.5463 18.9482 20.3225C17.9764 20.4073 16.9914 20.4529 16 20.4529C15.0151 20.4529 14.0302 20.4073 13.0648 20.329C12.5234 19.5528 11.9951 18.7245 11.4863 17.8504C10.9906 16.996 10.5406 16.1284 10.1296 15.2544C10.534 14.3804 10.9906 13.5063 11.4798 12.6519C11.9886 11.7713 12.5104 10.9364 13.0518 10.1602C14.0236 10.0754 15.0086 10.0298 16 10.0298C16.9849 10.0298 17.9698 10.0754 18.9352 10.1537C19.4766 10.9299 20.0049 11.7583 20.5137 12.6323C21.0094 13.4868 21.4594 14.3543 21.8704 15.2283C21.4594 16.1024 21.0094 16.9764 20.5202 17.8308ZM22.627 16.9829C22.9792 17.8569 23.2793 18.731 23.5271 19.5789C22.6726 19.7876 21.7725 19.9637 20.8398 20.1007C21.1594 19.5985 21.479 19.0832 21.779 18.5549C22.0791 18.0331 22.3596 17.5047 22.627 16.9829ZM16.013 23.9425C15.4064 23.3164 14.7998 22.6185 14.1998 21.8553C14.7868 21.8814 15.3869 21.901 15.9935 21.901C16.6066 21.901 17.2132 21.8879 17.8068 21.8553C17.2197 22.6185 16.6131 23.3164 16.013 23.9425ZM11.1602 20.1007C10.234 19.9637 9.3404 19.7942 8.48594 19.5854C8.72727 18.744 9.02731 17.8765 9.36649 17.009C9.63392 17.5308 9.91439 18.0526 10.221 18.5744C10.5275 19.0962 10.8406 19.605 11.1602 20.1007ZM15.9804 6.52714C16.587 7.15331 17.1936 7.85123 17.7937 8.61438C17.2067 8.58829 16.6066 8.56872 16 8.56872C15.3869 8.56872 14.7803 8.58177 14.1867 8.61438C14.7737 7.85123 15.3804 7.15331 15.9804 6.52714ZM11.1537 10.369C10.8341 10.8712 10.5145 11.3865 10.2144 11.9148C9.91439 12.4366 9.63392 12.9584 9.36649 13.4803C9.01427 12.6062 8.71423 11.7322 8.46637 10.8843C9.32083 10.6821 10.221 10.5059 11.1537 10.369ZM5.25071 18.5353C2.94171 17.5504 1.44802 16.2589 1.44802 15.2348C1.44802 14.2108 2.94171 12.9128 5.25071 11.9344C5.81166 11.6931 6.42479 11.4778 7.05748 11.2756C7.42927 12.554 7.91847 13.8847 8.52507 15.2479C7.92499 16.6046 7.44232 17.9287 7.07705 19.2006C6.43131 18.9984 5.81818 18.7766 5.25071 18.5353ZM8.75989 27.8561C7.87281 27.3474 7.48797 25.4101 7.78802 22.9185C7.85976 22.3054 7.97717 21.6596 8.12067 21.0008C9.3991 21.3139 10.7949 21.5553 12.2625 21.7118C13.1431 22.9185 14.0563 24.0143 14.9759 24.9731C12.8496 26.9495 10.8536 28.0322 9.49694 28.0322C9.20342 28.0257 8.95557 27.967 8.75989 27.8561ZM24.2316 22.8859C24.5381 25.3775 24.1598 27.3147 23.2792 27.83C23.0836 27.9474 22.8292 27.9996 22.5291 27.9996C21.179 27.9996 19.1765 26.9234 17.0501 24.9601C17.9633 24.0013 18.8765 22.912 19.744 21.7053C21.2181 21.5487 22.6139 21.3074 23.8924 20.9878C24.0424 21.6466 24.1598 22.2793 24.2316 22.8859ZM26.7428 18.5353C26.1818 18.7766 25.5687 18.9919 24.936 19.1941C24.5642 17.9156 24.075 16.585 23.4684 15.2218C24.0685 13.8651 24.5512 12.541 24.9164 11.2691C25.5622 11.4713 26.1753 11.6931 26.7493 11.9344C29.0583 12.9193 30.552 14.2108 30.552 15.2348C30.5455 16.2589 29.0518 17.5569 26.7428 18.5353Z" fill="#61DAFB"/>
<path d="M15.9935 18.2156C17.6398 18.2156 18.9744 16.881 18.9744 15.2347C18.9744 13.5885 17.6398 12.2539 15.9935 12.2539C14.3473 12.2539 13.0127 13.5885 13.0127 15.2347C13.0127 16.881 14.3473 18.2156 15.9935 18.2156Z" fill="#61DAFB"/>
</svg>
