<svg width="33" height="20" viewBox="0 0 33 20" fill="none" xmlns="http://www.w3.org/2000/svg">
<path d="M16.4946 0C12.2278 0 9.56123 2.1328 8.49443 6.398C10.0946 4.2652 11.9613 3.4657 14.0945 3.9987C15.3118 4.30281 16.1817 5.18594 17.1449 6.16311C18.7135 7.75491 20.5289 9.5972 24.4948 9.5972C28.7612 9.5972 31.4282 7.4644 32.4946 3.1988C30.8948 5.3316 29.0281 6.1315 26.8945 5.5985C25.6777 5.29439 24.8077 4.41125 23.8446 3.43409C22.276 1.84229 20.4601 0 16.4946 0ZM8.49443 9.5972C4.22803 9.5972 1.56103 11.73 0.494629 15.9956C2.09443 13.8628 3.96113 13.0629 6.09473 13.5963C7.31159 13.9008 8.18151 14.7835 9.14467 15.7603C10.7133 17.3521 12.5291 19.1948 16.4946 19.1948C20.7614 19.1948 23.428 17.062 24.4948 12.7964C22.8946 14.9292 21.0279 15.7291 18.8947 15.1957C17.6775 14.892 16.8075 14.0085 15.8444 13.0317C14.2758 11.4399 12.4603 9.5972 8.49443 9.5972Z" fill="#06B6D4"/>
</svg>
